<svg xmlns="http://www.w3.org/2000/svg" xmlns:xlink="http://www.w3.org/1999/xlink" width="1000" height="700" version="1.1">
<style type="text/css">
.l0{
 fill: #000000;
  stroke: #000000;
  stroke-linecap:round;
  stroke-linejoin:round;
  stroke-width: 0.60907;
}
.l1{
 fill: #00ccee;
  stroke: #00ccee;
  stroke-linecap:round;
  stroke-linejoin:round;
  stroke-width: 0.60907;
}
.l2{
  fill: none;
  stroke: #3f3f3f;
  stroke-linecap:round;
  stroke-linejoin:round;
  stroke-width: 0.60907;
}
.l3{
 fill: #cccccc; fill-opacity: 0.5;
  stroke: #cccccc;
  stroke-linecap:round;
  stroke-linejoin:round;
  stroke-width: 0.60907;
}
.l4{
 fill: #88dd00;
  stroke: #88dd00;
  stroke-linecap:round;
  stroke-linejoin:round;
  stroke-width: 0.60907;
}
.l5{
 fill: #bb2200;
  stroke: #bb2200;
  stroke-linecap:round;
  stroke-linejoin:round;
  stroke-width: 0.60907;
}
.l6{
 fill: #00ccee; fill-opacity: 0.5;
  stroke: #00ccee;
  stroke-linecap:round;
  stroke-linejoin:round;
  stroke-width: 0.60907;
}
.l7{
 fill: #ff0000; fill-opacity: 0.5;
  stroke: #ff0000;
  stroke-linecap:round;
  stroke-linejoin:round;
  stroke-width: 0.60907;
}
.l8{
 fill: #ffff00; fill-opacity: 0.5;
  stroke: #ffff00;
  stroke-linecap:round;
  stroke-linejoin:round;
  stroke-width: 0.60907;
}
.l9{
 fill: #ffffff; fill-opacity: 0.5;
  stroke: #ffffff;
  stroke-linecap:round;
  stroke-linejoin:round;
  stroke-width: 0.60907;
}
.l10{
 fill: #ff00ff;
  stroke: #ff00ff;
  stroke-linecap:round;
  stroke-linejoin:round;
  stroke-width: 0.60907;
}
.l11{
 fill: #00ff00; fill-opacity: 0.5;
  stroke: #00ff00;
  stroke-linecap:round;
  stroke-linejoin:round;
  stroke-width: 0.60907;
}
.l12{
 fill: #0044dd; fill-opacity: 0.5;
  stroke: #0044dd;
  stroke-linecap:round;
  stroke-linejoin:round;
  stroke-width: 0.60907;
}
.l13{
 fill: #aaaa00; fill-opacity: 0.5;
  stroke: #aaaa00;
  stroke-linecap:round;
  stroke-linejoin:round;
  stroke-width: 0.60907;
}
.l14{
  fill: none;
  stroke: #aaccaa;
  stroke-linecap:round;
  stroke-linejoin:round;
  stroke-width: 0.60907;
}
.l15{
 fill: #ff7777; fill-opacity: 0.5;
  stroke: #ff7777;
  stroke-linecap:round;
  stroke-linejoin:round;
  stroke-width: 0.60907;
}
.l16{
 fill: #bfff81; fill-opacity: 0.5;
  stroke: #bfff81;
  stroke-linecap:round;
  stroke-linejoin:round;
  stroke-width: 0.60907;
}
.l17{
  fill: none;
  stroke: #00ffcc;
  stroke-linecap:round;
  stroke-linejoin:round;
  stroke-width: 0.60907;
}
.l18{
 fill: #ce0097; fill-opacity: 0.5;
  stroke: #ce0097;
  stroke-linecap:round;
  stroke-linejoin:round;
  stroke-width: 0.60907;
}
.l19{
  fill: none;
  stroke: #d2d46b;
  stroke-linecap:round;
  stroke-linejoin:round;
  stroke-width: 0.60907;
}
.l20{
  fill: none;
  stroke: #ef6158;
  stroke-linecap:round;
  stroke-linejoin:round;
  stroke-width: 0.60907;
}
.l21{
  fill: none;
  stroke: #fdb200;
  stroke-linecap:round;
  stroke-linejoin:round;
  stroke-width: 0.60907;
}
text {font-family: Sans-Serif;}
</style>
<rect class="l0" x="0" y="0" width="1000" height="700"/>
<text fill="#cccccc"  xml:space="preserve" font-size="11.7302" transform="translate(31.9186, 559.163)" >Power down </text>
<text fill="#cccccc"  xml:space="preserve" font-size="11.7302" transform="translate(364.651, 237.709)" >OTA</text>
<text fill="#00ccee"  xml:space="preserve" font-size="9.67744" transform="translate(47.0325, 112.48)" >VDD_1V8</text>
<text fill="#00ccee"  xml:space="preserve" font-size="9.67744" transform="translate(233.532, 445.565)" >VBN1</text>
<text fill="#00ccee"  xml:space="preserve" font-size="9.67744" transform="translate(618.43, 264.748)" >VO</text>
<text fill="#00ccee"  xml:space="preserve" font-size="9.67744" transform="translate(324.163, 642.949)" >PWRUP_1V8</text>
<text fill="#00ccee"  xml:space="preserve" font-size="9.67744" transform="translate(335.044, 276.379)" >VBP1</text>
<text fill="#00ccee"  xml:space="preserve" font-size="9.67744" transform="translate(436.555, 276.379)" >VBP2</text>
<text fill="#00ccee"  xml:space="preserve" font-size="9.67744" transform="translate(29.9367, 512.887)" >VSS</text>
<text fill="#00ccee"  xml:space="preserve" font-size="9.67744" transform="translate(47.1211, 586.201)" >PWRUP_1V8</text>
<text fill="#00ccee"  xml:space="preserve" font-size="9.67744" transform="translate(238.599, 321.143)" >VIN</text>
<text fill="#00ccee"  xml:space="preserve" font-size="9.67744" transform="translate(504.935, 321.143)" >VIP</text>
<text fill="#00ccee"  xml:space="preserve" font-size="7.91791" transform="translate(128.284, 641.786)" >VSS</text>
<text fill="#00ccee"  xml:space="preserve" font-size="7.91791" transform="translate(16.8086, 641.786)" >PWRUP_N_1V8</text>
<text fill="#00ccee"  xml:space="preserve" font-size="7.91791" transform="translate(157.797, 641.786)" >PWRUP_N_1V8</text>
<text fill="#00ccee"  xml:space="preserve" font-size="7.91791" transform="translate(98.8408, 619.228)" >VBN1</text>
<text fill="#00ccee"  xml:space="preserve" font-size="7.91791" transform="translate(231.699, 619.228)" >IBP_2U</text>
<text fill="#00ccee"  xml:space="preserve" font-size="7.91791" transform="translate(274.912, 641.786)" >VSS</text>
<text fill="#00ccee"  xml:space="preserve" font-size="7.91791" transform="translate(439.116, 619.228)" >VDD_1V8</text>
<text fill="#00ccee"  xml:space="preserve" font-size="7.91791" transform="translate(454.132, 664.345)" >VBP1</text>
<text fill="#00ccee"  xml:space="preserve" font-size="7.91791" transform="translate(365.144, 314.693)" >VSS</text>
<text fill="#00ccee"  xml:space="preserve" font-size="9.67744" transform="translate(504.628, 642.949)" >PWRUP_1V8</text>
<text fill="#00ccee"  xml:space="preserve" font-size="7.91791" transform="translate(619.581, 619.228)" >VDD_1V8</text>
<text fill="#00ccee"  xml:space="preserve" font-size="7.91791" transform="translate(634.597, 664.345)" >VBP2</text>
<text fill="#00ccee"  xml:space="preserve" font-size="9.67744" transform="translate(86.5269, 306.717) rotate(270)" >IBP_2U</text>
<text fill="#00ccee"  xml:space="preserve" font-size="7.91791" transform="translate(438.458, 365.449)" >VSS</text>
<text fill="#00ccee"  xml:space="preserve" font-size="9.67744" transform="translate(656.896, 642.949)" >PWRUP_1V8</text>
<text fill="#00ccee"  xml:space="preserve" font-size="7.91791" transform="translate(771.849, 619.228)" >VDD_1V8</text>
<text fill="#00ccee"  xml:space="preserve" font-size="7.91791" transform="translate(786.864, 664.345)" >VBP3</text>
<text fill="#00ccee"  xml:space="preserve" font-size="9.67744" transform="translate(470.392, 428.647)" >PWRUP_1V8</text>
<text fill="#00ccee"  xml:space="preserve" font-size="7.91791" transform="translate(366.39, 331.612)" >VS</text>
<text fill="#00ccee"  xml:space="preserve" font-size="9.67744" transform="translate(30.2911, 597.48)" >PWRUP_N_1V8</text>
<path class="l3" d="M37.5581 531.593L968.081 531.593"/>
<path class="l3" d="M663.547 86.0698L663.547 531.593"/>
<text fill="#cccccc"  xml:space="preserve" font-size="7.3314" transform="translate(827.093, 652.648)" >Updated</text>
<text fill="#cccccc"  xml:space="preserve" font-size="7.3314" transform="translate(29.0988, 686.485)" >Library/Cell</text>
<text fill="#cccccc"  xml:space="preserve" font-size="7.3314" transform="translate(827.093, 641.369)" >Designer</text>
<text fill="#cccccc"  xml:space="preserve" font-size="7.3314" transform="translate(827.093, 663.927)" >Modified</text>
<text fill="#cccccc"  xml:space="preserve" font-size="7.3314" transform="translate(829.913, 675.206)" >Copyright</text>
<text fill="#cccccc"  xml:space="preserve" font-size="7.3314" transform="translate(872.209, 652.648)" >wulff</text>
<text fill="#cccccc"  xml:space="preserve" font-size="7.3314" transform="translate(872.209, 663.927)" >2022-11-29  19:52:46</text>
<text fill="#cccccc"  xml:space="preserve" font-size="7.3314" transform="translate(93.9535, 686.485)" >/Users/wulff/lpro/aicex/ip/rply_bias_sky130nm/work/../design/RPLY_BIAS_SKY130NM/RPLYBS_OTAN.sch</text>
<text fill="#cccccc"  xml:space="preserve" font-size="4.69209" transform="translate(601.512, 149.784)" >SUNTR_PCHLCM</text>
<text fill="#cccccc"  xml:space="preserve" font-size="4.69209" transform="translate(601.512, 124.407)" >x1</text>
<text fill="#cccccc"  xml:space="preserve" font-size="4.69209" transform="translate(123.947, 149.784)" >SUNTR_PCHLCM</text>
<text fill="#cccccc"  xml:space="preserve" font-size="4.69209" transform="translate(164.747, 124.407)" >x2</text>
<text fill="#cccccc"  xml:space="preserve" font-size="4.69209" transform="translate(449.244, 651.703)" >SUNTR_PCHDL</text>
<text fill="#cccccc"  xml:space="preserve" font-size="4.69209" transform="translate(449.244, 626.325)" >x4</text>
<text fill="#cccccc"  xml:space="preserve" font-size="4.69209" transform="translate(601.512, 465.598)" >SUNTR_NCHLCM</text>
<text fill="#cccccc"  xml:space="preserve" font-size="4.69209" transform="translate(601.512, 490.976)" >x7</text>
<text fill="#cccccc"  xml:space="preserve" font-size="4.69209" transform="translate(123.947, 465.598)" >SUNTR_NCHLCM</text>
<text fill="#cccccc"  xml:space="preserve" font-size="4.69209" transform="translate(164.747, 490.976)" >x6</text>
<text fill="#cccccc"  xml:space="preserve" font-size="4.69209" transform="translate(127.791, 634.784)" >SUNTR_NCHDL</text>
<text fill="#cccccc"  xml:space="preserve" font-size="4.69209" transform="translate(127.791, 660.162)" >x11</text>
<text fill="#cccccc"  xml:space="preserve" font-size="4.69209" transform="translate(274.419, 634.784)" >SUNTR_NCHDL</text>
<text fill="#cccccc"  xml:space="preserve" font-size="4.69209" transform="translate(274.419, 660.162)" >x12</text>
<text fill="#cccccc"  xml:space="preserve" font-size="4.69209" transform="translate(330.814, 307.691)" >SUNTR_NCHLA</text>
<text fill="#cccccc"  xml:space="preserve" font-size="4.69209" transform="translate(330.814, 333.069)" >xp1[19:0]</text>
<text fill="#cccccc"  xml:space="preserve" font-size="4.69209" transform="translate(387.446, 307.691)" >SUNTR_NCHLA</text>
<text fill="#cccccc"  xml:space="preserve" font-size="4.69209" transform="translate(395.606, 333.069)" >xp2[19:0]</text>
<text fill="#cccccc"  xml:space="preserve" font-size="4.69209" transform="translate(629.709, 651.703)" >SUNTR_PCHDL</text>
<text fill="#cccccc"  xml:space="preserve" font-size="4.69209" transform="translate(629.709, 626.325)" >x3</text>
<text fill="#cccccc"  xml:space="preserve" font-size="4.39884" transform="translate(411.342, 362.603) rotate(270)" >x30</text>
<text fill="#cccccc"  xml:space="preserve" font-size="4.39884" transform="translate(405.703, 397.028) rotate(270)" >SUNTR_RPPO16</text>
<text fill="#cccccc"  xml:space="preserve" font-size="4.69209" transform="translate(781.977, 651.703)" >SUNTR_PCHDL</text>
<text fill="#cccccc"  xml:space="preserve" font-size="4.69209" transform="translate(781.977, 626.325)" >x14</text>
<text fill="#cccccc"  xml:space="preserve" font-size="4.69209" transform="translate(33.7144, 364.087)" >SUNTR_NCHLCM</text>
<text fill="#cccccc"  xml:space="preserve" font-size="4.69209" transform="translate(50.0344, 389.465)" >x10[1:0]</text>
<text fill="#cccccc"  xml:space="preserve" font-size="4.69209" transform="translate(353.372, 364.087)" >SUNTR_NCHLCM</text>
<text fill="#cccccc"  xml:space="preserve" font-size="4.69209" transform="translate(353.372, 389.465)" >x13</text>
<text fill="#cccccc"  xml:space="preserve" font-size="4.69209" transform="translate(376.167, 414.843)" >SUNTR_NCHDL</text>
<text fill="#cccccc"  xml:space="preserve" font-size="4.69209" transform="translate(408.807, 440.22)" >x16</text>
<text fill="#cccccc"  xml:space="preserve" font-size="4.69209" transform="translate(330.814, 149.784)" >SUNTR_PCHLCM</text>
<text fill="#cccccc"  xml:space="preserve" font-size="4.69209" transform="translate(330.814, 124.407)" >x17[1:0]</text>
<text fill="#cccccc"  xml:space="preserve" font-size="4.69209" transform="translate(383.366, 149.784)" >SUNTR_PCHLCM</text>
<text fill="#cccccc"  xml:space="preserve" font-size="4.69209" transform="translate(399.686, 124.407)" >x18[1:0]</text>
<path class="l4" d="M866.57 644.384L866.57 655.663"/>
<path class="l4" d="M793.256 678.221L793.256 689.5"/>
<path class="l4" d="M906.047 678.221L906.047 689.5"/>
<path class="l4" d="M680.465 678.221L680.465 689.5"/>
<path class="l4" d="M91.1337 678.221L91.1337 689.5"/>
<path class="l4" d="M15 678.221L26.2791 678.221"/>
<path class="l4" d="M26.2791 678.221L26.2791 689.5"/>
<path class="l4" d="M973.721 678.221L985 678.221"/>
<path class="l4" d="M973.721 678.221L973.721 689.5"/>
<path class="l4" d="M866.57 633.105L866.57 644.384"/>
<path class="l4" d="M866.57 655.663L866.57 666.942"/>
<path class="l4" style="fill:none;" d="M824.273 678.221L985 678.221L985 633.105L824.273 633.105L824.273 678.221"/>
<path class="l4" style="fill:none;" d="M15 689.5L985 689.5L985 86.0698L15 86.0698L15 689.5"/>
<path class="l4" style="fill:none;" d="M824.273 644.384L973.721 644.384L973.721 633.105L824.273 633.105L824.273 644.384"/>
<path class="l4" style="fill:none;" d="M15 689.5L985 689.5L985 678.221L15 678.221L15 689.5"/>
<path class="l4" style="fill:none;" d="M824.273 678.221L973.721 678.221L973.721 666.942L824.273 666.942L824.273 678.221"/>
<path class="l4" style="fill:none;" d="M824.273 666.942L973.721 666.942L973.721 655.663L824.273 655.663L824.273 666.942"/>
<path class="l4" style="fill:none;" d="M824.273 655.663L973.721 655.663L973.721 644.384L824.273 644.384L824.273 655.663"/>
<path class="l4" d="M590.233 145.285L601.512 145.285"/>
<path class="l4" d="M601.512 145.285L601.512 153.744"/>
<path class="l4" d="M590.233 128.366L601.512 128.366"/>
<path class="l4" d="M601.512 119.907L601.512 128.366"/>
<path class="l4" d="M590.233 136.826L601.512 136.826"/>
<path class="l4" d="M594.18 128.366L599.82 125.547"/>
<path class="l4" d="M594.18 128.366L599.82 131.186"/>
<path class="l4" d="M590.233 128.366L590.233 145.285"/>
<path class="l4" d="M587.413 128.366L587.413 145.285"/>
<path class="l4" d="M578.953 136.826L582.901 136.826"/>
<circle class="l4" cx="585.157" cy="136.826" r="2.25581" style="fill:none;"/>
<path class="l4" d="M172.907 145.285L184.186 145.285"/>
<path class="l4" d="M172.907 145.285L172.907 153.744"/>
<path class="l4" d="M172.907 128.366L184.186 128.366"/>
<path class="l4" d="M172.907 119.907L172.907 128.366"/>
<path class="l4" d="M172.907 136.826L184.186 136.826"/>
<path class="l4" d="M174.599 125.547L180.238 128.366"/>
<path class="l4" d="M174.599 131.186L180.238 128.366"/>
<path class="l4" d="M184.186 128.366L184.186 145.285"/>
<path class="l4" d="M187.006 128.366L187.006 145.285"/>
<path class="l4" d="M191.517 136.826L195.465 136.826"/>
<circle class="l4" cx="189.262" cy="136.826" r="2.25581" style="fill:none;"/>
<path class="l4" d="M437.965 647.203L449.244 647.203"/>
<path class="l4" d="M449.244 647.203L449.244 655.663"/>
<path class="l4" d="M437.965 630.285L449.244 630.285"/>
<path class="l4" d="M449.244 621.826L449.244 630.285"/>
<path class="l4" d="M437.965 638.744L449.244 638.744"/>
<path class="l4" d="M441.913 630.285L447.552 627.465"/>
<path class="l4" d="M441.913 630.285L447.552 633.105"/>
<path class="l4" d="M437.965 630.285L437.965 647.203"/>
<path class="l4" d="M435.145 630.285L435.145 647.203"/>
<path class="l4" d="M426.686 638.744L430.634 638.744"/>
<circle class="l4" cx="432.89" cy="638.744" r="2.25581" style="fill:none;"/>
<path class="l4" d="M595.872 480.837L601.512 483.657"/>
<path class="l4" d="M595.872 486.477L601.512 483.657"/>
<path class="l4" d="M590.233 466.738L601.512 466.738"/>
<path class="l4" d="M601.512 458.279L601.512 466.738"/>
<path class="l4" d="M590.233 483.657L601.512 483.657"/>
<path class="l4" d="M601.512 483.657L601.512 492.116"/>
<path class="l4" d="M590.233 475.198L601.512 475.198"/>
<path class="l4" d="M590.233 466.738L590.233 483.657"/>
<path class="l4" d="M587.413 466.738L587.413 483.657"/>
<path class="l4" d="M578.953 475.198L587.413 475.198"/>
<path class="l4" d="M172.907 483.657L178.547 480.837"/>
<path class="l4" d="M172.907 483.657L178.547 486.477"/>
<path class="l4" d="M172.907 466.738L184.186 466.738"/>
<path class="l4" d="M172.907 458.279L172.907 466.738"/>
<path class="l4" d="M172.907 483.657L184.186 483.657"/>
<path class="l4" d="M172.907 483.657L172.907 492.116"/>
<path class="l4" d="M172.907 475.198L184.186 475.198"/>
<path class="l4" d="M184.186 466.738L184.186 483.657"/>
<path class="l4" d="M187.006 466.738L187.006 483.657"/>
<path class="l4" d="M187.006 475.198L195.465 475.198"/>
<path class="l4" d="M122.151 650.023L127.791 652.843"/>
<path class="l4" d="M122.151 655.663L127.791 652.843"/>
<path class="l4" d="M116.512 635.924L127.791 635.924"/>
<path class="l4" d="M127.791 627.465L127.791 635.924"/>
<path class="l4" d="M116.512 652.843L127.791 652.843"/>
<path class="l4" d="M127.791 652.843L127.791 661.302"/>
<path class="l4" d="M116.512 644.384L127.791 644.384"/>
<path class="l4" d="M116.512 635.924L116.512 652.843"/>
<path class="l4" d="M113.692 635.924L113.692 652.843"/>
<path class="l4" d="M105.233 644.384L113.692 644.384"/>
<path class="l4" d="M268.779 650.023L274.419 652.843"/>
<path class="l4" d="M268.779 655.663L274.419 652.843"/>
<path class="l4" d="M263.14 635.924L274.419 635.924"/>
<path class="l4" d="M274.419 627.465L274.419 635.924"/>
<path class="l4" d="M263.14 652.843L274.419 652.843"/>
<path class="l4" d="M274.419 652.843L274.419 661.302"/>
<path class="l4" d="M263.14 644.384L274.419 644.384"/>
<path class="l4" d="M263.14 635.924L263.14 652.843"/>
<path class="l4" d="M260.32 635.924L260.32 652.843"/>
<path class="l4" d="M251.86 644.384L260.32 644.384"/>
<path class="l4" d="M325.174 322.93L330.814 325.75"/>
<path class="l4" d="M325.174 328.57L330.814 325.75"/>
<path class="l4" d="M319.535 308.831L330.814 308.831"/>
<path class="l4" d="M330.814 300.372L330.814 308.831"/>
<path class="l4" d="M319.535 325.75L330.814 325.75"/>
<path class="l4" d="M330.814 325.75L330.814 334.209"/>
<path class="l4" d="M319.535 317.291L330.814 317.291"/>
<path class="l4" d="M319.535 308.831L319.535 325.75"/>
<path class="l4" d="M316.715 308.831L316.715 325.75"/>
<path class="l4" d="M308.256 317.291L316.715 317.291"/>
<path class="l4" d="M432.326 325.75L437.965 322.93"/>
<path class="l4" d="M432.326 325.75L437.965 328.57"/>
<path class="l4" d="M432.326 308.831L443.605 308.831"/>
<path class="l4" d="M432.326 300.372L432.326 308.831"/>
<path class="l4" d="M432.326 325.75L443.605 325.75"/>
<path class="l4" d="M432.326 325.75L432.326 334.209"/>
<path class="l4" d="M432.326 317.291L443.605 317.291"/>
<path class="l4" d="M443.605 308.831L443.605 325.75"/>
<path class="l4" d="M446.424 308.831L446.424 325.75"/>
<path class="l4" d="M446.424 317.291L454.884 317.291"/>
<path class="l4" d="M618.43 647.203L629.709 647.203"/>
<path class="l4" d="M629.709 647.203L629.709 655.663"/>
<path class="l4" d="M618.43 630.285L629.709 630.285"/>
<path class="l4" d="M629.709 621.826L629.709 630.285"/>
<path class="l4" d="M618.43 638.744L629.709 638.744"/>
<path class="l4" d="M622.378 630.285L628.017 627.465"/>
<path class="l4" d="M622.378 630.285L628.017 633.105"/>
<path class="l4" d="M618.43 630.285L618.43 647.203"/>
<path class="l4" d="M615.61 630.285L615.61 647.203"/>
<path class="l4" d="M607.151 638.744L611.099 638.744"/>
<circle class="l4" cx="613.355" cy="638.744" r="2.25581" style="fill:none;"/>
<path class="l4" d="M423.866 368.047L432.326 368.047"/>
<path class="l4" d="M421.047 384.965L421.047 390.605"/>
<path class="l4" d="M421.047 345.488L421.047 351.128"/>
<path class="l4" d="M424.994 361.279L424.994 374.814"/>
<path class="l4" d="M421.047 381.581L421.047 384.965"/>
<path class="l4" d="M421.047 351.128L421.047 354.512"/>
<path class="l4" d="M421.047 354.512L424.43 356.203"/>
<path class="l4" d="M417.663 359.587L424.43 356.203"/>
<path class="l4" d="M417.663 359.587L424.43 362.971"/>
<path class="l4" d="M417.663 366.355L424.43 362.971"/>
<path class="l4" d="M417.663 366.355L424.43 369.738"/>
<path class="l4" d="M417.663 373.122L424.43 369.738"/>
<path class="l4" d="M417.663 373.122L424.43 376.506"/>
<path class="l4" d="M417.663 379.89L424.43 376.506"/>
<path class="l4" d="M417.663 379.89L421.047 381.581"/>
<path class="l4" d="M770.698 647.203L781.977 647.203"/>
<path class="l4" d="M781.977 647.203L781.977 655.663"/>
<path class="l4" d="M770.698 630.285L781.977 630.285"/>
<path class="l4" d="M781.977 621.826L781.977 630.285"/>
<path class="l4" d="M770.698 638.744L781.977 638.744"/>
<path class="l4" d="M774.645 630.285L780.285 627.465"/>
<path class="l4" d="M774.645 630.285L780.285 633.105"/>
<path class="l4" d="M770.698 630.285L770.698 647.203"/>
<path class="l4" d="M767.878 630.285L767.878 647.203"/>
<path class="l4" d="M759.419 638.744L763.366 638.744"/>
<circle class="l4" cx="765.622" cy="638.744" r="2.25581" style="fill:none;"/>
<path class="l4" d="M82.6744 382.145L88.314 379.326"/>
<path class="l4" d="M82.6744 382.145L88.314 384.965"/>
<path class="l4" d="M82.6744 365.227L93.9535 365.227"/>
<path class="l4" d="M82.6744 356.767L82.6744 365.227"/>
<path class="l4" d="M82.6744 382.145L93.9535 382.145"/>
<path class="l4" d="M82.6744 382.145L82.6744 390.605"/>
<path class="l4" d="M82.6744 373.686L93.9535 373.686"/>
<path class="l4" d="M93.9535 365.227L93.9535 382.145"/>
<path class="l4" d="M96.7733 365.227L96.7733 382.145"/>
<path class="l4" d="M96.7733 373.686L105.233 373.686"/>
<path class="l4" d="M347.733 379.326L353.372 382.145"/>
<path class="l4" d="M347.733 384.965L353.372 382.145"/>
<path class="l4" d="M342.093 365.227L353.372 365.227"/>
<path class="l4" d="M353.372 356.767L353.372 365.227"/>
<path class="l4" d="M342.093 382.145L353.372 382.145"/>
<path class="l4" d="M353.372 382.145L353.372 390.605"/>
<path class="l4" d="M342.093 373.686L353.372 373.686"/>
<path class="l4" d="M342.093 365.227L342.093 382.145"/>
<path class="l4" d="M339.273 365.227L339.273 382.145"/>
<path class="l4" d="M330.814 373.686L339.273 373.686"/>
<path class="l4" d="M421.047 432.901L426.686 430.081"/>
<path class="l4" d="M421.047 432.901L426.686 435.721"/>
<path class="l4" d="M421.047 415.983L432.326 415.983"/>
<path class="l4" d="M421.047 407.523L421.047 415.983"/>
<path class="l4" d="M421.047 432.901L432.326 432.901"/>
<path class="l4" d="M421.047 432.901L421.047 441.36"/>
<path class="l4" d="M421.047 424.442L432.326 424.442"/>
<path class="l4" d="M432.326 415.983L432.326 432.901"/>
<path class="l4" d="M435.145 415.983L435.145 432.901"/>
<path class="l4" d="M435.145 424.442L443.605 424.442"/>
<path class="l4" d="M319.535 145.285L330.814 145.285"/>
<path class="l4" d="M330.814 145.285L330.814 153.744"/>
<path class="l4" d="M319.535 128.366L330.814 128.366"/>
<path class="l4" d="M330.814 119.907L330.814 128.366"/>
<path class="l4" d="M319.535 136.826L330.814 136.826"/>
<path class="l4" d="M323.483 128.366L329.122 125.547"/>
<path class="l4" d="M323.483 128.366L329.122 131.186"/>
<path class="l4" d="M319.535 128.366L319.535 145.285"/>
<path class="l4" d="M316.715 128.366L316.715 145.285"/>
<path class="l4" d="M308.256 136.826L312.203 136.826"/>
<circle class="l4" cx="314.459" cy="136.826" r="2.25581" style="fill:none;"/>
<path class="l4" d="M432.326 145.285L443.605 145.285"/>
<path class="l4" d="M432.326 145.285L432.326 153.744"/>
<path class="l4" d="M432.326 128.366L443.605 128.366"/>
<path class="l4" d="M432.326 119.907L432.326 128.366"/>
<path class="l4" d="M432.326 136.826L443.605 136.826"/>
<path class="l4" d="M434.017 125.547L439.657 128.366"/>
<path class="l4" d="M434.017 131.186L439.657 128.366"/>
<path class="l4" d="M443.605 128.366L443.605 145.285"/>
<path class="l4" d="M446.424 128.366L446.424 145.285"/>
<path class="l4" d="M450.936 136.826L454.884 136.826"/>
<circle class="l4" cx="448.68" cy="136.826" r="2.25581" style="fill:none;"/>
<path class="l5" d="M599.256 151.488L603.767 151.488L603.767 156L599.256 156L599.256 151.488z"/>
<path class="l5" d="M576.698 134.57L581.209 134.57L581.209 139.081L576.698 139.081L576.698 134.57z"/>
<path class="l5" d="M599.256 117.651L603.767 117.651L603.767 122.163L599.256 122.163L599.256 117.651z"/>
<path class="l5" d="M599.256 134.57L603.767 134.57L603.767 139.081L599.256 139.081L599.256 134.57z"/>
<path class="l5" d="M170.651 151.488L175.163 151.488L175.163 156L170.651 156L170.651 151.488z"/>
<path class="l5" d="M193.209 134.57L197.721 134.57L197.721 139.081L193.209 139.081L193.209 134.57z"/>
<path class="l5" d="M170.651 117.651L175.163 117.651L175.163 122.163L170.651 122.163L170.651 117.651z"/>
<path class="l5" d="M170.651 134.57L175.163 134.57L175.163 139.081L170.651 139.081L170.651 134.57z"/>
<path class="l5" d="M446.988 653.407L451.5 653.407L451.5 657.919L446.988 657.919L446.988 653.407z"/>
<path class="l5" d="M424.43 636.488L428.942 636.488L428.942 641L424.43 641L424.43 636.488z"/>
<path class="l5" d="M446.988 619.57L451.5 619.57L451.5 624.081L446.988 624.081L446.988 619.57z"/>
<path class="l5" d="M446.988 636.488L451.5 636.488L451.5 641L446.988 641L446.988 636.488z"/>
<path class="l5" d="M599.256 456.023L603.767 456.023L603.767 460.535L599.256 460.535L599.256 456.023z"/>
<path class="l5" d="M576.698 472.942L581.209 472.942L581.209 477.453L576.698 477.453L576.698 472.942z"/>
<path class="l5" d="M599.256 489.86L603.767 489.86L603.767 494.372L599.256 494.372L599.256 489.86z"/>
<path class="l5" d="M599.256 472.942L603.767 472.942L603.767 477.453L599.256 477.453L599.256 472.942z"/>
<path class="l5" d="M170.651 456.023L175.163 456.023L175.163 460.535L170.651 460.535L170.651 456.023z"/>
<path class="l5" d="M193.209 472.942L197.721 472.942L197.721 477.453L193.209 477.453L193.209 472.942z"/>
<path class="l5" d="M170.651 489.86L175.163 489.86L175.163 494.372L170.651 494.372L170.651 489.86z"/>
<path class="l5" d="M170.651 472.942L175.163 472.942L175.163 477.453L170.651 477.453L170.651 472.942z"/>
<path class="l5" d="M125.535 625.209L130.047 625.209L130.047 629.721L125.535 629.721L125.535 625.209z"/>
<path class="l5" d="M102.977 642.128L107.488 642.128L107.488 646.64L102.977 646.64L102.977 642.128z"/>
<path class="l5" d="M125.535 659.047L130.047 659.047L130.047 663.558L125.535 663.558L125.535 659.047z"/>
<path class="l5" d="M125.535 642.128L130.047 642.128L130.047 646.64L125.535 646.64L125.535 642.128z"/>
<path class="l5" d="M272.163 625.209L276.674 625.209L276.674 629.721L272.163 629.721L272.163 625.209z"/>
<path class="l5" d="M249.605 642.128L254.116 642.128L254.116 646.64L249.605 646.64L249.605 642.128z"/>
<path class="l5" d="M272.163 659.047L276.674 659.047L276.674 663.558L272.163 663.558L272.163 659.047z"/>
<path class="l5" d="M272.163 642.128L276.674 642.128L276.674 646.64L272.163 646.64L272.163 642.128z"/>
<path class="l5" d="M328.558 298.116L333.07 298.116L333.07 302.628L328.558 302.628L328.558 298.116z"/>
<path class="l5" d="M306 315.035L310.512 315.035L310.512 319.547L306 319.547L306 315.035z"/>
<path class="l5" d="M328.558 331.953L333.07 331.953L333.07 336.465L328.558 336.465L328.558 331.953z"/>
<path class="l5" d="M328.558 315.035L333.07 315.035L333.07 319.547L328.558 319.547L328.558 315.035z"/>
<path class="l5" d="M430.07 298.116L434.581 298.116L434.581 302.628L430.07 302.628L430.07 298.116z"/>
<path class="l5" d="M452.628 315.035L457.14 315.035L457.14 319.547L452.628 319.547L452.628 315.035z"/>
<path class="l5" d="M430.07 331.953L434.581 331.953L434.581 336.465L430.07 336.465L430.07 331.953z"/>
<path class="l5" d="M430.07 315.035L434.581 315.035L434.581 319.547L430.07 319.547L430.07 315.035z"/>
<path class="l5" d="M116.512 108.628L112.987 105.808L108.405 105.808L108.405 111.448L112.987 111.448L116.512 108.628"/>
<path class="l5" d="M116.506 108.622L116.517 108.622L116.517 108.633L116.506 108.633L116.506 108.622z"/>
<path class="l5" d="M228.597 440.656L230.007 440.656L230.007 442.065L228.597 442.065L228.597 440.656z"/>
<path class="l5" d="M607.151 258.076L607.151 263.715L611.733 263.715L615.258 260.895L611.733 258.076L607.151 258.076"/>
<path class="l5" d="M607.146 260.89L607.157 260.89L607.157 260.901L607.146 260.901L607.146 260.89z"/>
<path class="l5" d="M403.423 638.039L404.833 638.039L404.833 639.449L403.423 639.449L403.423 638.039z"/>
<path class="l5" d="M330.109 271.469L331.519 271.469L331.519 272.879L330.109 272.879L330.109 271.469z"/>
<path class="l5" d="M431.621 271.469L433.031 271.469L433.031 272.879L431.621 272.879L431.621 271.469z"/>
<path class="l5" d="M65.7558 509.035L62.2311 506.215L57.649 506.215L57.649 511.855L62.2311 511.855L65.7558 509.035"/>
<path class="l5" d="M65.7503 509.029L65.7613 509.029L65.7613 509.04L65.7503 509.04L65.7503 509.029z"/>
<path class="l5" d="M133.43 582.349L129.906 579.529L125.323 579.529L125.323 585.169L129.906 585.169L133.43 582.349"/>
<path class="l5" d="M133.425 582.343L133.436 582.343L133.436 582.354L133.425 582.354L133.425 582.343z"/>
<path class="l5" d="M274.419 317.291L270.894 314.471L266.312 314.471L266.312 320.11L270.894 320.11L274.419 317.291"/>
<path class="l5" d="M274.413 317.285L274.424 317.285L274.424 317.296L274.413 317.296L274.413 317.285z"/>
<path class="l5" d="M494.36 317.291L497.885 314.471L502.467 314.471L502.467 320.11L497.885 320.11L494.36 317.291"/>
<path class="l5" d="M494.355 317.285L494.366 317.285L494.366 317.296L494.355 317.296L494.355 317.285z"/>
<path class="l5" d="M149.644 643.679L151.054 643.679L151.054 645.089L149.644 645.089L149.644 643.679z"/>
<path class="l5" d="M93.2485 643.679L94.6584 643.679L94.6584 645.089L93.2485 645.089L93.2485 643.679z"/>
<path class="l5" d="M234.237 643.679L235.647 643.679L235.647 645.089L234.237 645.089L234.237 643.679z"/>
<path class="l5" d="M127.086 621.121L128.496 621.121L128.496 622.531L127.086 622.531L127.086 621.121z"/>
<path class="l5" d="M273.714 621.121L275.124 621.121L275.124 622.531L273.714 622.531L273.714 621.121z"/>
<path class="l5" d="M296.272 643.679L297.682 643.679L297.682 645.089L296.272 645.089L296.272 643.679z"/>
<path class="l5" d="M488.016 621.121L489.426 621.121L489.426 622.531L488.016 622.531L488.016 621.121z"/>
<path class="l5" d="M482.376 666.237L483.786 666.237L483.786 667.647L482.376 667.647L482.376 666.237z"/>
<path class="l5" d="M386.504 316.586L387.914 316.586L387.914 317.996L386.504 317.996L386.504 316.586z"/>
<path class="l5" d="M627.453 653.407L631.965 653.407L631.965 657.919L627.453 657.919L627.453 653.407z"/>
<path class="l5" d="M604.895 636.488L609.407 636.488L609.407 641L604.895 641L604.895 636.488z"/>
<path class="l5" d="M627.453 619.57L631.965 619.57L631.965 624.081L627.453 624.081L627.453 619.57z"/>
<path class="l5" d="M627.453 636.488L631.965 636.488L631.965 641L627.453 641L627.453 636.488z"/>
<path class="l5" d="M583.888 638.039L585.298 638.039L585.298 639.449L583.888 639.449L583.888 638.039z"/>
<path class="l5" d="M668.481 621.121L669.891 621.121L669.891 622.531L668.481 622.531L668.481 621.121z"/>
<path class="l5" d="M662.842 666.237L664.251 666.237L664.251 667.647L662.842 667.647L662.842 666.237z"/>
<path class="l5" d="M82.6744 317.291L79.8547 313.766L79.8547 309.184L85.4942 309.184L85.4942 313.766L82.6744 317.291"/>
<path class="l5" d="M82.6689 317.285L82.6799 317.285L82.6799 317.296L82.6689 317.296L82.6689 317.285z"/>
<path class="l5" d="M418.791 388.349L423.302 388.349L423.302 392.86L418.791 392.86L418.791 388.349z"/>
<path class="l5" d="M418.791 343.233L423.302 343.233L423.302 347.744L418.791 347.744L418.791 343.233z"/>
<path class="l5" d="M430.07 365.791L434.581 365.791L434.581 370.302L430.07 370.302L430.07 365.791z"/>
<path class="l5" d="M459.818 367.342L461.228 367.342L461.228 368.751L459.818 368.751L459.818 367.342z"/>
<path class="l5" d="M779.721 653.407L784.233 653.407L784.233 657.919L779.721 657.919L779.721 653.407z"/>
<path class="l5" d="M757.163 636.488L761.674 636.488L761.674 641L757.163 641L757.163 636.488z"/>
<path class="l5" d="M779.721 619.57L784.233 619.57L784.233 624.081L779.721 624.081L779.721 619.57z"/>
<path class="l5" d="M779.721 636.488L784.233 636.488L784.233 641L779.721 641L779.721 636.488z"/>
<path class="l5" d="M736.156 638.039L737.565 638.039L737.565 639.449L736.156 639.449L736.156 638.039z"/>
<path class="l5" d="M820.749 621.121L822.158 621.121L822.158 622.531L820.749 622.531L820.749 621.121z"/>
<path class="l5" d="M815.109 666.237L816.519 666.237L816.519 667.647L815.109 667.647L815.109 666.237z"/>
<path class="l5" d="M80.4186 354.512L84.9302 354.512L84.9302 359.023L80.4186 359.023L80.4186 354.512z"/>
<path class="l5" d="M102.977 371.43L107.488 371.43L107.488 375.942L102.977 375.942L102.977 371.43z"/>
<path class="l5" d="M80.4186 388.349L84.9302 388.349L84.9302 392.86L80.4186 392.86L80.4186 388.349z"/>
<path class="l5" d="M80.4186 371.43L84.9302 371.43L84.9302 375.942L80.4186 375.942L80.4186 371.43z"/>
<path class="l5" d="M351.116 354.512L355.628 354.512L355.628 359.023L351.116 359.023L351.116 354.512z"/>
<path class="l5" d="M328.558 371.43L333.07 371.43L333.07 375.942L328.558 375.942L328.558 371.43z"/>
<path class="l5" d="M351.116 388.349L355.628 388.349L355.628 392.86L351.116 392.86L351.116 388.349z"/>
<path class="l5" d="M351.116 371.43L355.628 371.43L355.628 375.942L351.116 375.942L351.116 371.43z"/>
<path class="l5" d="M418.791 405.267L423.302 405.267L423.302 409.779L418.791 409.779L418.791 405.267z"/>
<path class="l5" d="M441.349 422.186L445.86 422.186L445.86 426.698L441.349 426.698L441.349 422.186z"/>
<path class="l5" d="M418.791 439.105L423.302 439.105L423.302 443.616L418.791 443.616L418.791 439.105z"/>
<path class="l5" d="M418.791 422.186L423.302 422.186L423.302 426.698L418.791 426.698L418.791 422.186z"/>
<path class="l5" d="M465.458 423.737L466.868 423.737L466.868 425.147L465.458 425.147L465.458 423.737z"/>
<path class="l5" d="M328.558 151.488L333.07 151.488L333.07 156L328.558 156L328.558 151.488z"/>
<path class="l5" d="M306 134.57L310.512 134.57L310.512 139.081L306 139.081L306 134.57z"/>
<path class="l5" d="M328.558 117.651L333.07 117.651L333.07 122.163L328.558 122.163L328.558 117.651z"/>
<path class="l5" d="M328.558 134.57L333.07 134.57L333.07 139.081L328.558 139.081L328.558 134.57z"/>
<path class="l5" d="M430.07 151.488L434.581 151.488L434.581 156L430.07 156L430.07 151.488z"/>
<path class="l5" d="M452.628 134.57L457.14 134.57L457.14 139.081L452.628 139.081L452.628 134.57z"/>
<path class="l5" d="M430.07 117.651L434.581 117.651L434.581 122.163L430.07 122.163L430.07 117.651z"/>
<path class="l5" d="M430.07 134.57L434.581 134.57L434.581 139.081L430.07 139.081L430.07 134.57z"/>
<path class="l5" d="M380.865 333.504L382.275 333.504L382.275 334.914L380.865 334.914L380.865 333.504z"/>
<path class="l5" d="M133.43 593.628L129.906 590.808L125.323 590.808L125.323 596.448L129.906 596.448L133.43 593.628"/>
<path class="l5" d="M133.425 593.622L133.436 593.622L133.436 593.633L133.425 593.633L133.425 593.622z"/>
<path class="l1" d="M330.814 509.035L601.512 509.035"/>
<path class="l1" d="M601.512 492.116L601.512 509.035"/>
<path class="l1" d="M172.907 492.116L172.907 509.035"/>
<path class="l1" d="M172.907 509.035L330.814 509.035"/>
<path class="l1" d="M144.709 475.198L172.907 475.198"/>
<path class="l1" d="M144.709 475.198L144.709 509.035"/>
<path class="l1" d="M144.709 509.035L172.907 509.035"/>
<path class="l1" d="M234.942 644.384L251.86 644.384"/>
<path class="l1" d="M93.9535 644.384L105.233 644.384"/>
<path class="l1" d="M330.814 289.093L330.814 300.372"/>
<path class="l1" d="M432.326 289.093L432.326 300.372"/>
<path class="l1" d="M330.814 317.291L432.326 317.291"/>
<path class="l1" d="M172.907 153.744L172.907 458.279"/>
<path class="l1" d="M172.907 108.628L172.907 119.907"/>
<path class="l1" d="M172.907 108.628L601.512 108.628"/>
<path class="l1" d="M601.512 108.628L601.512 119.907"/>
<path class="l1" d="M601.512 136.826L618.43 136.826"/>
<path class="l1" d="M618.43 108.628L618.43 136.826"/>
<path class="l1" d="M601.512 108.628L618.43 108.628"/>
<path class="l1" d="M155.988 136.826L172.907 136.826"/>
<path class="l1" d="M155.988 108.628L155.988 136.826"/>
<path class="l1" d="M155.988 108.628L172.907 108.628"/>
<path class="l1" d="M601.512 153.744L601.512 165.023"/>
<path class="l1" d="M449.244 638.744L488.721 638.744"/>
<path class="l1" d="M449.244 621.826L488.721 621.826"/>
<path class="l1" d="M488.721 621.826L488.721 638.744"/>
<path class="l1" d="M601.512 165.023L601.512 458.279"/>
<path class="l1" d="M404.128 638.744L426.686 638.744"/>
<path class="l1" d="M116.512 108.628L155.988 108.628"/>
<path class="l1" d="M60.1163 509.035L144.709 509.035"/>
<path class="l1" d="M127.791 582.349L144.709 582.349"/>
<path class="l1" d="M291.337 317.291L308.256 317.291"/>
<path class="l1" d="M127.791 621.826L127.791 627.465"/>
<path class="l1" d="M274.419 621.826L274.419 627.465"/>
<path class="l1" d="M127.791 644.384L150.349 644.384"/>
<path class="l1" d="M150.349 644.384L150.349 661.302"/>
<path class="l1" d="M127.791 661.302L150.349 661.302"/>
<path class="l1" d="M274.419 644.384L296.977 644.384"/>
<path class="l1" d="M296.977 644.384L296.977 661.302"/>
<path class="l1" d="M274.419 661.302L296.977 661.302"/>
<path class="l1" d="M449.244 655.663L449.244 666.942"/>
<path class="l1" d="M449.244 666.942L488.721 666.942"/>
<path class="l1" d="M268.779 317.291L285.698 317.291"/>
<path class="l1" d="M285.698 317.291L291.337 317.291"/>
<path class="l1" d="M477.442 317.291L494.36 317.291"/>
<path class="l1" d="M629.709 638.744L669.186 638.744"/>
<path class="l1" d="M629.709 621.826L669.186 621.826"/>
<path class="l1" d="M669.186 621.826L669.186 638.744"/>
<path class="l1" d="M584.593 638.744L607.151 638.744"/>
<path class="l1" d="M629.709 655.663L629.709 666.942"/>
<path class="l1" d="M629.709 666.942L669.186 666.942"/>
<path class="l1" d="M454.884 317.291L477.442 317.291"/>
<path class="l1" d="M432.326 368.047L460.523 368.047"/>
<path class="l1" d="M781.977 638.744L821.453 638.744"/>
<path class="l1" d="M781.977 621.826L821.453 621.826"/>
<path class="l1" d="M821.453 621.826L821.453 638.744"/>
<path class="l1" d="M736.86 638.744L759.419 638.744"/>
<path class="l1" d="M781.977 655.663L781.977 666.942"/>
<path class="l1" d="M781.977 666.942L821.453 666.942"/>
<path class="l1" d="M421.047 390.605L421.047 401.884"/>
<path class="l1" d="M150.349 661.302L167.267 661.302"/>
<path class="l1" d="M82.6744 390.605L82.6744 509.035"/>
<path class="l1" d="M71.3953 373.686L82.6744 373.686"/>
<path class="l1" d="M71.3953 373.686L71.3953 509.035"/>
<path class="l1" d="M105.233 351.128L105.233 373.686"/>
<path class="l1" d="M82.6744 351.128L105.233 351.128"/>
<path class="l1" d="M82.6744 351.128L82.6744 356.767"/>
<path class="l1" d="M82.6744 311.651L82.6744 351.128"/>
<path class="l1" d="M105.233 373.686L330.814 373.686"/>
<path class="l1" d="M353.372 390.605L353.372 509.035"/>
<path class="l1" d="M353.372 373.686L370.291 373.686"/>
<path class="l1" d="M370.291 373.686L370.291 509.035"/>
<path class="l1" d="M353.372 334.209L353.372 356.767"/>
<path class="l1" d="M330.814 334.209L353.372 334.209"/>
<path class="l1" d="M353.372 334.209L432.326 334.209"/>
<path class="l1" d="M421.047 334.209L421.047 345.488"/>
<path class="l1" d="M421.047 401.884L421.047 407.523"/>
<path class="l1" d="M404.128 424.442L421.047 424.442"/>
<path class="l1" d="M404.128 424.442L404.128 509.035"/>
<path class="l1" d="M421.047 441.36L421.047 509.035"/>
<path class="l1" d="M443.605 424.442L466.163 424.442"/>
<path class="l1" d="M330.814 153.744L330.814 289.093"/>
<path class="l1" d="M432.326 153.744L432.326 289.093"/>
<path class="l1" d="M415.407 136.826L432.326 136.826"/>
<path class="l1" d="M415.407 108.628L415.407 136.826"/>
<path class="l1" d="M432.326 108.628L432.326 119.907"/>
<path class="l1" d="M330.814 108.628L330.814 119.907"/>
<path class="l1" d="M330.814 136.826L342.093 136.826"/>
<path class="l1" d="M342.093 108.628L342.093 136.826"/>
<path class="l1" d="M195.465 136.826L308.256 136.826"/>
<path class="l1" d="M296.977 136.826L296.977 176.302"/>
<path class="l1" d="M296.977 176.302L330.814 176.302"/>
<path class="l1" d="M454.884 136.826L578.953 136.826"/>
<path class="l1" d="M432.326 176.302L466.163 176.302"/>
<path class="l1" d="M466.163 136.826L466.163 176.302"/>
<path class="l1" d="M195.465 475.198L584.593 475.198"/>
<path class="l1" d="M172.907 441.36L229.302 441.36"/>
<path class="l1" d="M229.302 441.36L229.302 475.198"/>
<path class="l1" d="M618.43 108.628L821.453 108.628"/>
<path class="l1" d="M601.512 260.895L607.151 260.895"/>
<path class="l1" d="M601.512 475.198L624.07 475.198"/>
<path class="l1" d="M624.07 475.198L624.07 509.035"/>
<path class="l1" d="M601.512 509.035L624.07 509.035"/>
<path class="l1" d="M127.791 593.628L144.709 593.628"/>
<circle class="l1" cx="155.988" cy="108.628" r="2.25581"/>
<circle class="l1" cx="155.988" cy="108.628" r="2.25581"/>
<circle class="l1" cx="172.907" cy="108.628" r="2.25581"/>
<circle class="l1" cx="155.988" cy="108.628" r="2.25581"/>
<circle class="l1" cx="172.907" cy="108.628" r="2.25581"/>
<circle class="l1" cx="601.512" cy="108.628" r="2.25581"/>
<circle class="l1" cx="172.907" cy="108.628" r="2.25581"/>
<circle class="l1" cx="82.6744" cy="351.128" r="2.25581"/>
<circle class="l1" cx="82.6744" cy="351.128" r="2.25581"/>
<circle class="l1" cx="82.6744" cy="351.128" r="2.25581"/>
<circle class="l1" cx="71.3953" cy="509.035" r="2.25581"/>
<circle class="l1" cx="82.6744" cy="509.035" r="2.25581"/>
<circle class="l1" cx="229.302" cy="475.198" r="2.25581"/>
<circle class="l1" cx="172.907" cy="441.36" r="2.25581"/>
<circle class="l1" cx="144.709" cy="509.035" r="2.25581"/>
<circle class="l1" cx="144.709" cy="509.035" r="2.25581"/>
<circle class="l1" cx="172.907" cy="509.035" r="2.25581"/>
<circle class="l1" cx="144.709" cy="509.035" r="2.25581"/>
<circle class="l1" cx="172.907" cy="509.035" r="2.25581"/>
<circle class="l1" cx="172.907" cy="509.035" r="2.25581"/>
<circle class="l1" cx="150.349" cy="661.302" r="2.25581"/>
<circle class="l1" cx="150.349" cy="661.302" r="2.25581"/>
<circle class="l1" cx="150.349" cy="661.302" r="2.25581"/>
<circle class="l1" cx="466.163" cy="136.826" r="2.25581"/>
<circle class="l1" cx="432.326" cy="176.302" r="2.25581"/>
<circle class="l1" cx="330.814" cy="176.302" r="2.25581"/>
<circle class="l1" cx="296.977" cy="136.826" r="2.25581"/>
<circle class="l1" cx="342.093" cy="108.628" r="2.25581"/>
<circle class="l1" cx="330.814" cy="108.628" r="2.25581"/>
<circle class="l1" cx="432.326" cy="108.628" r="2.25581"/>
<circle class="l1" cx="415.407" cy="108.628" r="2.25581"/>
<circle class="l1" cx="421.047" cy="334.209" r="2.25581"/>
<circle class="l1" cx="353.372" cy="334.209" r="2.25581"/>
<circle class="l1" cx="353.372" cy="334.209" r="2.25581"/>
<circle class="l1" cx="353.372" cy="334.209" r="2.25581"/>
<circle class="l1" cx="370.291" cy="509.035" r="2.25581"/>
<circle class="l1" cx="353.372" cy="509.035" r="2.25581"/>
<circle class="l1" cx="421.047" cy="509.035" r="2.25581"/>
<circle class="l1" cx="404.128" cy="509.035" r="2.25581"/>
<circle class="l1" cx="601.512" cy="509.035" r="2.25581"/>
<circle class="l1" cx="618.43" cy="108.628" r="2.25581"/>
<circle class="l1" cx="601.512" cy="108.628" r="2.25581"/>
<circle class="l1" cx="618.43" cy="108.628" r="2.25581"/>
<circle class="l1" cx="618.43" cy="108.628" r="2.25581"/>
<circle class="l1" cx="601.512" cy="108.628" r="2.25581"/>
<circle class="l1" cx="601.512" cy="260.895" r="2.25581"/>
<circle class="l1" cx="601.512" cy="509.035" r="2.25581"/>
<circle class="l1" cx="601.512" cy="509.035" r="2.25581"/>
</svg>
