<svg xmlns="http://www.w3.org/2000/svg" xmlns:xlink="http://www.w3.org/1999/xlink" width="2526" height="1189" version="1.1">
<style type="text/css">
.l0{
 fill: #000000;
  stroke: #000000;
  stroke-linecap:round;
  stroke-linejoin:round;
  stroke-width: 1.16411;
}
.l1{
 fill: #00ccee;
  stroke: #00ccee;
  stroke-linecap:round;
  stroke-linejoin:round;
  stroke-width: 1.16411;
}
.l2{
  fill: none;
  stroke: #3f3f3f;
  stroke-linecap:round;
  stroke-linejoin:round;
  stroke-width: 1.16411;
}
.l3{
 fill: #cccccc; fill-opacity: 0.5;
  stroke: #cccccc;
  stroke-linecap:round;
  stroke-linejoin:round;
  stroke-width: 1.16411;
}
.l4{
 fill: #88dd00;
  stroke: #88dd00;
  stroke-linecap:round;
  stroke-linejoin:round;
  stroke-width: 1.16411;
}
.l5{
 fill: #bb2200;
  stroke: #bb2200;
  stroke-linecap:round;
  stroke-linejoin:round;
  stroke-width: 1.16411;
}
.l6{
 fill: #00ccee; fill-opacity: 0.5;
  stroke: #00ccee;
  stroke-linecap:round;
  stroke-linejoin:round;
  stroke-width: 1.16411;
}
.l7{
 fill: #ff0000; fill-opacity: 0.5;
  stroke: #ff0000;
  stroke-linecap:round;
  stroke-linejoin:round;
  stroke-width: 1.16411;
}
.l8{
 fill: #ffff00; fill-opacity: 0.5;
  stroke: #ffff00;
  stroke-linecap:round;
  stroke-linejoin:round;
  stroke-width: 1.16411;
}
.l9{
 fill: #ffffff; fill-opacity: 0.5;
  stroke: #ffffff;
  stroke-linecap:round;
  stroke-linejoin:round;
  stroke-width: 1.16411;
}
.l10{
 fill: #ff00ff;
  stroke: #ff00ff;
  stroke-linecap:round;
  stroke-linejoin:round;
  stroke-width: 1.16411;
}
.l11{
 fill: #00ff00; fill-opacity: 0.5;
  stroke: #00ff00;
  stroke-linecap:round;
  stroke-linejoin:round;
  stroke-width: 1.16411;
}
.l12{
 fill: #0044dd; fill-opacity: 0.5;
  stroke: #0044dd;
  stroke-linecap:round;
  stroke-linejoin:round;
  stroke-width: 1.16411;
}
.l13{
 fill: #aaaa00; fill-opacity: 0.5;
  stroke: #aaaa00;
  stroke-linecap:round;
  stroke-linejoin:round;
  stroke-width: 1.16411;
}
.l14{
  fill: none;
  stroke: #aaccaa;
  stroke-linecap:round;
  stroke-linejoin:round;
  stroke-width: 1.16411;
}
.l15{
 fill: #ff7777; fill-opacity: 0.5;
  stroke: #ff7777;
  stroke-linecap:round;
  stroke-linejoin:round;
  stroke-width: 1.16411;
}
.l16{
 fill: #bfff81; fill-opacity: 0.5;
  stroke: #bfff81;
  stroke-linecap:round;
  stroke-linejoin:round;
  stroke-width: 1.16411;
}
.l17{
  fill: none;
  stroke: #00ffcc;
  stroke-linecap:round;
  stroke-linejoin:round;
  stroke-width: 1.16411;
}
.l18{
 fill: #ce0097; fill-opacity: 0.5;
  stroke: #ce0097;
  stroke-linecap:round;
  stroke-linejoin:round;
  stroke-width: 1.16411;
}
.l19{
  fill: none;
  stroke: #d2d46b;
  stroke-linecap:round;
  stroke-linejoin:round;
  stroke-width: 1.16411;
}
.l20{
  fill: none;
  stroke: #ef6158;
  stroke-linecap:round;
  stroke-linejoin:round;
  stroke-width: 1.16411;
}
.l21{
  fill: none;
  stroke: #fdb200;
  stroke-linecap:round;
  stroke-linejoin:round;
  stroke-width: 1.16411;
}
text {font-family: Sans-Serif;}
</style>
<rect class="l0" x="0" y="0" width="2526" height="1189"/>
<text fill="#cccccc"  xml:space="preserve" font-size="22.4199" transform="translate(368.361, 922.053)" >Power down </text>
<text fill="#cccccc"  xml:space="preserve" font-size="22.4199" transform="translate(1004.31, 307.662)" >OTA</text>
<text fill="#00ccee"  xml:space="preserve" font-size="18.4964" transform="translate(427.583, 68.3134)" >VDD_1V8</text>
<text fill="#00ccee"  xml:space="preserve" font-size="18.4964" transform="translate(753.702, 704.935)" >VBN1</text>
<text fill="#00ccee"  xml:space="preserve" font-size="18.4964" transform="translate(1489.35, 359.341)" >VO</text>
<text fill="#00ccee"  xml:space="preserve" font-size="18.4964" transform="translate(959.632, 1082.19)" >PWRUP_1V8</text>
<text fill="#00ccee"  xml:space="preserve" font-size="18.4964" transform="translate(947.721, 381.572)" >VBP1</text>
<text fill="#00ccee"  xml:space="preserve" font-size="18.4964" transform="translate(1141.74, 381.572)" >VBP2</text>
<text fill="#00ccee"  xml:space="preserve" font-size="18.4964" transform="translate(375.812, 833.607)" >VSS</text>
<text fill="#00ccee"  xml:space="preserve" font-size="18.4964" transform="translate(430.125, 973.731)" >PWRUP_1V8</text>
<text fill="#00ccee"  xml:space="preserve" font-size="18.4964" transform="translate(780.805, 467.128)" >VIN</text>
<text fill="#00ccee"  xml:space="preserve" font-size="18.4964" transform="translate(1272.43, 467.128)" >VIP</text>
<text fill="#00ccee"  xml:space="preserve" font-size="15.1334" transform="translate(561.739, 1079.97)" >VSS</text>
<text fill="#00ccee"  xml:space="preserve" font-size="15.1334" transform="translate(373.215, 1079.97)" >PWRUP_N_1V8</text>
<text fill="#00ccee"  xml:space="preserve" font-size="15.1334" transform="translate(642.685, 1079.97)" >PWRUP_N_1V8</text>
<text fill="#00ccee"  xml:space="preserve" font-size="15.1334" transform="translate(509.372, 1036.86)" >VBN1</text>
<text fill="#00ccee"  xml:space="preserve" font-size="15.1334" transform="translate(777, 1036.86)" >IBP_2U</text>
<text fill="#00ccee"  xml:space="preserve" font-size="15.1334" transform="translate(841.987, 1079.97)" >VSS</text>
<text fill="#00ccee"  xml:space="preserve" font-size="15.1334" transform="translate(1171.45, 1036.86)" >VDD_1V8</text>
<text fill="#00ccee"  xml:space="preserve" font-size="15.1334" transform="translate(1189.27, 1123.09)" >VBP1</text>
<text fill="#00ccee"  xml:space="preserve" font-size="15.1334" transform="translate(1014.45, 454.801)" >VSS</text>
<text fill="#00ccee"  xml:space="preserve" font-size="18.4964" transform="translate(1304.55, 1082.19)" >PWRUP_1V8</text>
<text fill="#00ccee"  xml:space="preserve" font-size="15.1334" transform="translate(1516.37, 1036.86)" >VDD_1V8</text>
<text fill="#00ccee"  xml:space="preserve" font-size="15.1334" transform="translate(1534.19, 1123.09)" >VBP2</text>
<text fill="#00ccee"  xml:space="preserve" font-size="18.4964" transform="translate(472.733, 439.555) rotate(270)" >IBP_2U</text>
<text fill="#00ccee"  xml:space="preserve" font-size="15.1334" transform="translate(1154.57, 551.81)" >VSS</text>
<text fill="#00ccee"  xml:space="preserve" font-size="18.4964" transform="translate(1595.58, 1082.19)" >PWRUP_1V8</text>
<text fill="#00ccee"  xml:space="preserve" font-size="15.1334" transform="translate(1807.4, 1036.86)" >VDD_1V8</text>
<text fill="#00ccee"  xml:space="preserve" font-size="15.1334" transform="translate(1825.22, 1123.09)" >VBP3</text>
<text fill="#00ccee"  xml:space="preserve" font-size="18.4964" transform="translate(1206.41, 672.599)" >PWRUP_1V8</text>
<text fill="#00ccee"  xml:space="preserve" font-size="15.1334" transform="translate(1013.76, 487.137)" >VS</text>
<text fill="#00ccee"  xml:space="preserve" font-size="18.4964" transform="translate(406.48, 995.289)" >PWRUP_N_1V8</text>
<path class="l3" d="M379.14 869.359L2157.64 869.359"/>
<path class="l3" d="M1575.58 17.835L1575.58 869.359"/>
<text fill="#cccccc"  xml:space="preserve" font-size="14.0124" transform="translate(1888.17, 1101.43)" >Updated</text>
<text fill="#cccccc"  xml:space="preserve" font-size="14.0124" transform="translate(362.971, 1166.1)" >Library/Cell</text>
<text fill="#cccccc"  xml:space="preserve" font-size="14.0124" transform="translate(1888.17, 1079.87)" >Designer</text>
<text fill="#cccccc"  xml:space="preserve" font-size="14.0124" transform="translate(1888.17, 1122.99)" >Modified</text>
<text fill="#cccccc"  xml:space="preserve" font-size="14.0124" transform="translate(1893.56, 1144.55)" >Copyright</text>
<text fill="#cccccc"  xml:space="preserve" font-size="14.0124" transform="translate(1974.4, 1101.43)" >wulff</text>
<text fill="#cccccc"  xml:space="preserve" font-size="14.0124" transform="translate(1974.4, 1122.99)" >2023-06-03  16:29:42</text>
<text fill="#cccccc"  xml:space="preserve" font-size="14.0124" transform="translate(486.927, 1166.1)" >RPLYBS_OTAN</text>
<text fill="#cccccc"  xml:space="preserve" font-size="8.96795" transform="translate(1457.02, 140.061)" >CNRATR_PCH_8C8F0</text>
<text fill="#cccccc"  xml:space="preserve" font-size="8.96795" transform="translate(1457.02, 91.556)" >x1</text>
<text fill="#cccccc"  xml:space="preserve" font-size="8.96795" transform="translate(544.639, 140.061)" >CNRATR_PCH_8C8F0</text>
<text fill="#cccccc"  xml:space="preserve" font-size="8.96795" transform="translate(628.359, 91.556)" >x2</text>
<text fill="#cccccc"  xml:space="preserve" font-size="8.96795" transform="translate(1165.99, 1099.37)" >CNRATR_PCH_2C1F2</text>
<text fill="#cccccc"  xml:space="preserve" font-size="8.96795" transform="translate(1165.99, 1050.87)" >x4</text>
<text fill="#cccccc"  xml:space="preserve" font-size="8.96795" transform="translate(1457.02, 743.673)" >CNRATR_NCH_4C8F0</text>
<text fill="#cccccc"  xml:space="preserve" font-size="8.96795" transform="translate(1457.02, 792.177)" >x7</text>
<text fill="#cccccc"  xml:space="preserve" font-size="8.96795" transform="translate(544.144, 743.673)" >CNRATR_NCH_4C8F0</text>
<text fill="#cccccc"  xml:space="preserve" font-size="8.96795" transform="translate(628.359, 792.177)" >x6</text>
<text fill="#cccccc"  xml:space="preserve" font-size="8.96795" transform="translate(551.6, 1067.04)" >CNRATR_NCH_2C1F2</text>
<text fill="#cccccc"  xml:space="preserve" font-size="8.96795" transform="translate(551.6, 1115.54)" >x11</text>
<text fill="#cccccc"  xml:space="preserve" font-size="8.96795" transform="translate(831.849, 1067.04)" >CNRATR_NCH_2C1F2</text>
<text fill="#cccccc"  xml:space="preserve" font-size="8.96795" transform="translate(831.849, 1115.54)" >x12</text>
<text fill="#cccccc"  xml:space="preserve" font-size="8.96795" transform="translate(939.636, 441.867)" >CNRATR_NCH_8C8F0</text>
<text fill="#cccccc"  xml:space="preserve" font-size="8.96795" transform="translate(939.636, 490.371)" >xp1</text>
<text fill="#cccccc"  xml:space="preserve" font-size="8.96795" transform="translate(1039.97, 441.867)" >CNRATR_NCH_8C8F0</text>
<text fill="#cccccc"  xml:space="preserve" font-size="8.96795" transform="translate(1119.2, 490.371)" >xp2</text>
<text fill="#cccccc"  xml:space="preserve" font-size="8.96795" transform="translate(1510.91, 1099.37)" >CNRATR_PCH_2C1F2</text>
<text fill="#cccccc"  xml:space="preserve" font-size="8.96795" transform="translate(1510.91, 1050.87)" >x3</text>
<text fill="#cccccc"  xml:space="preserve" font-size="8.40745" transform="translate(1093.97, 537.993) rotate(270)" >x30</text>
<text fill="#cccccc"  xml:space="preserve" font-size="8.40745" transform="translate(1083.19, 591.25) rotate(270)" >SUNTR_RPPO16</text>
<text fill="#cccccc"  xml:space="preserve" font-size="8.96795" transform="translate(1801.94, 1099.37)" >CNRATR_PCH_2C1F2</text>
<text fill="#cccccc"  xml:space="preserve" font-size="8.96795" transform="translate(1801.94, 1050.87)" >x14</text>
<text fill="#cccccc"  xml:space="preserve" font-size="8.96795" transform="translate(371.684, 549.654)" >CNRATR_NCH_4C8F0</text>
<text fill="#cccccc"  xml:space="preserve" font-size="8.96795" transform="translate(433.461, 598.159)" >x10[1:0]</text>
<text fill="#cccccc"  xml:space="preserve" font-size="8.96795" transform="translate(982.752, 549.654)" >CNRATR_NCH_4C8F0</text>
<text fill="#cccccc"  xml:space="preserve" font-size="8.96795" transform="translate(982.752, 598.159)" >x13</text>
<text fill="#cccccc"  xml:space="preserve" font-size="8.96795" transform="translate(1018.41, 646.663)" >CNRATR_NCH_2C1F2</text>
<text fill="#cccccc"  xml:space="preserve" font-size="8.96795" transform="translate(1097.64, 695.168)" >x16</text>
<text fill="#cccccc"  xml:space="preserve" font-size="8.96795" transform="translate(939.636, 140.061)" >CNRATR_PCH_8C8F0</text>
<text fill="#cccccc"  xml:space="preserve" font-size="8.96795" transform="translate(939.636, 91.556)" >x17[1:0]</text>
<text fill="#cccccc"  xml:space="preserve" font-size="8.96795" transform="translate(1040.46, 140.061)" >CNRATR_PCH_8C8F0</text>
<text fill="#cccccc"  xml:space="preserve" font-size="8.96795" transform="translate(1101.75, 91.556)" >x18[1:0]</text>
<path class="l4" d="M1963.62 1084.93L1963.62 1106.49"/>
<path class="l4" d="M1823.5 1149.61L1823.5 1171.16"/>
<path class="l4" d="M2039.07 1149.61L2039.07 1171.16"/>
<path class="l4" d="M1607.92 1149.61L1607.92 1171.16"/>
<path class="l4" d="M481.538 1149.61L481.538 1171.16"/>
<path class="l4" d="M336.024 1149.61L357.582 1149.61"/>
<path class="l4" d="M357.582 1149.61L357.582 1171.16"/>
<path class="l4" d="M2168.42 1149.61L2189.98 1149.61"/>
<path class="l4" d="M2168.42 1149.61L2168.42 1171.16"/>
<path class="l4" d="M1963.62 1063.38L1963.62 1084.93"/>
<path class="l4" d="M1963.62 1106.49L1963.62 1128.05"/>
<path class="l4" style="fill:none;" d="M1882.78 1149.61L2189.98 1149.61L2189.98 1063.38L1882.78 1063.38L1882.78 1149.61"/>
<path class="l4" style="fill:none;" d="M336.024 1171.16L2189.98 1171.16L2189.98 17.835L336.024 17.835L336.024 1171.16"/>
<path class="l4" style="fill:none;" d="M1882.78 1084.93L2168.42 1084.93L2168.42 1063.38L1882.78 1063.38L1882.78 1084.93"/>
<path class="l4" style="fill:none;" d="M336.024 1171.16L2189.98 1171.16L2189.98 1149.61L336.024 1149.61L336.024 1171.16"/>
<path class="l4" style="fill:none;" d="M1882.78 1149.61L2168.42 1149.61L2168.42 1128.05L1882.78 1128.05L1882.78 1149.61"/>
<path class="l4" style="fill:none;" d="M1882.78 1128.05L2168.42 1128.05L2168.42 1106.49L1882.78 1106.49L1882.78 1128.05"/>
<path class="l4" style="fill:none;" d="M1882.78 1106.49L2168.42 1106.49L2168.42 1084.93L1882.78 1084.93L1882.78 1106.49"/>
<path class="l4" d="M1435.46 131.012L1457.02 131.012"/>
<path class="l4" d="M1457.02 131.012L1457.02 147.18"/>
<path class="l4" d="M1435.46 98.6759L1457.02 98.6759"/>
<path class="l4" d="M1457.02 82.5077L1457.02 98.6759"/>
<path class="l4" d="M1435.46 114.844L1457.02 114.844"/>
<path class="l4" d="M1443.01 98.6759L1453.78 93.2865"/>
<path class="l4" d="M1443.01 98.6759L1453.78 104.065"/>
<path class="l4" d="M1435.46 98.6759L1435.46 131.012"/>
<path class="l4" d="M1430.07 98.6759L1430.07 131.012"/>
<path class="l4" d="M1413.9 114.844L1421.45 114.844"/>
<circle class="l4" cx="1425.76" cy="114.844" r="4.31151" style="fill:none;"/>
<path class="l4" d="M637.83 131.012L659.388 131.012"/>
<path class="l4" d="M637.83 131.012L637.83 147.18"/>
<path class="l4" d="M637.83 98.6759L659.388 98.6759"/>
<path class="l4" d="M637.83 82.5077L637.83 98.6759"/>
<path class="l4" d="M637.83 114.844L659.388 114.844"/>
<path class="l4" d="M641.064 93.2865L651.843 98.6759"/>
<path class="l4" d="M641.064 104.065L651.843 98.6759"/>
<path class="l4" d="M659.388 98.6759L659.388 131.012"/>
<path class="l4" d="M664.777 98.6759L664.777 131.012"/>
<path class="l4" d="M673.4 114.844L680.946 114.844"/>
<circle class="l4" cx="669.089" cy="114.844" r="4.31151" style="fill:none;"/>
<path class="l4" d="M1144.43 1090.32L1165.99 1090.32"/>
<path class="l4" d="M1165.99 1090.32L1165.99 1106.49"/>
<path class="l4" d="M1144.43 1057.99L1165.99 1057.99"/>
<path class="l4" d="M1165.99 1041.82L1165.99 1057.99"/>
<path class="l4" d="M1144.43 1074.16L1165.99 1074.16"/>
<path class="l4" d="M1151.98 1057.99L1162.76 1052.6"/>
<path class="l4" d="M1151.98 1057.99L1162.76 1063.38"/>
<path class="l4" d="M1144.43 1057.99L1144.43 1090.32"/>
<path class="l4" d="M1139.04 1057.99L1139.04 1090.32"/>
<path class="l4" d="M1122.88 1074.16L1130.42 1074.16"/>
<circle class="l4" cx="1134.73" cy="1074.16" r="4.31151" style="fill:none;"/>
<path class="l4" d="M1446.24 772.35L1457.02 777.739"/>
<path class="l4" d="M1446.24 783.129L1457.02 777.739"/>
<path class="l4" d="M1435.46 745.403L1457.02 745.403"/>
<path class="l4" d="M1457.02 729.235L1457.02 745.403"/>
<path class="l4" d="M1435.46 777.739L1457.02 777.739"/>
<path class="l4" d="M1457.02 777.739L1457.02 793.908"/>
<path class="l4" d="M1435.46 761.571L1457.02 761.571"/>
<path class="l4" d="M1435.46 745.403L1435.46 777.739"/>
<path class="l4" d="M1430.07 745.403L1430.07 777.739"/>
<path class="l4" d="M1413.9 761.571L1430.07 761.571"/>
<path class="l4" d="M637.83 777.739L648.609 772.35"/>
<path class="l4" d="M637.83 777.739L648.609 783.129"/>
<path class="l4" d="M637.83 745.403L659.388 745.403"/>
<path class="l4" d="M637.83 729.235L637.83 745.403"/>
<path class="l4" d="M637.83 777.739L659.388 777.739"/>
<path class="l4" d="M637.83 777.739L637.83 793.908"/>
<path class="l4" d="M637.83 761.571L659.388 761.571"/>
<path class="l4" d="M659.388 745.403L659.388 777.739"/>
<path class="l4" d="M664.777 745.403L664.777 777.739"/>
<path class="l4" d="M664.777 761.571L680.946 761.571"/>
<path class="l4" d="M540.821 1095.71L551.6 1101.1"/>
<path class="l4" d="M540.821 1106.49L551.6 1101.1"/>
<path class="l4" d="M530.043 1068.77L551.6 1068.77"/>
<path class="l4" d="M551.6 1052.6L551.6 1068.77"/>
<path class="l4" d="M530.043 1101.1L551.6 1101.1"/>
<path class="l4" d="M551.6 1101.1L551.6 1117.27"/>
<path class="l4" d="M530.043 1084.93L551.6 1084.93"/>
<path class="l4" d="M530.043 1068.77L530.043 1101.1"/>
<path class="l4" d="M524.653 1068.77L524.653 1101.1"/>
<path class="l4" d="M508.485 1084.93L524.653 1084.93"/>
<path class="l4" d="M821.07 1095.71L831.849 1101.1"/>
<path class="l4" d="M821.07 1106.49L831.849 1101.1"/>
<path class="l4" d="M810.291 1068.77L831.849 1068.77"/>
<path class="l4" d="M831.849 1052.6L831.849 1068.77"/>
<path class="l4" d="M810.291 1101.1L831.849 1101.1"/>
<path class="l4" d="M831.849 1101.1L831.849 1117.27"/>
<path class="l4" d="M810.291 1084.93L831.849 1084.93"/>
<path class="l4" d="M810.291 1068.77L810.291 1101.1"/>
<path class="l4" d="M804.902 1068.77L804.902 1101.1"/>
<path class="l4" d="M788.733 1084.93L804.902 1084.93"/>
<path class="l4" d="M928.858 470.544L939.636 475.933"/>
<path class="l4" d="M928.858 481.323L939.636 475.933"/>
<path class="l4" d="M918.079 443.597L939.636 443.597"/>
<path class="l4" d="M939.636 427.429L939.636 443.597"/>
<path class="l4" d="M918.079 475.933L939.636 475.933"/>
<path class="l4" d="M939.636 475.933L939.636 492.102"/>
<path class="l4" d="M918.079 459.765L939.636 459.765"/>
<path class="l4" d="M918.079 443.597L918.079 475.933"/>
<path class="l4" d="M912.689 443.597L912.689 475.933"/>
<path class="l4" d="M896.521 459.765L912.689 459.765"/>
<path class="l4" d="M1133.65 475.933L1144.43 470.544"/>
<path class="l4" d="M1133.65 475.933L1144.43 481.323"/>
<path class="l4" d="M1133.65 443.597L1155.21 443.597"/>
<path class="l4" d="M1133.65 427.429L1133.65 443.597"/>
<path class="l4" d="M1133.65 475.933L1155.21 475.933"/>
<path class="l4" d="M1133.65 475.933L1133.65 492.102"/>
<path class="l4" d="M1133.65 459.765L1155.21 459.765"/>
<path class="l4" d="M1155.21 443.597L1155.21 475.933"/>
<path class="l4" d="M1160.6 443.597L1160.6 475.933"/>
<path class="l4" d="M1160.6 459.765L1176.77 459.765"/>
<path class="l4" d="M1489.35 1090.32L1510.91 1090.32"/>
<path class="l4" d="M1510.91 1090.32L1510.91 1106.49"/>
<path class="l4" d="M1489.35 1057.99L1510.91 1057.99"/>
<path class="l4" d="M1510.91 1041.82L1510.91 1057.99"/>
<path class="l4" d="M1489.35 1074.16L1510.91 1074.16"/>
<path class="l4" d="M1496.9 1057.99L1507.68 1052.6"/>
<path class="l4" d="M1496.9 1057.99L1507.68 1063.38"/>
<path class="l4" d="M1489.35 1057.99L1489.35 1090.32"/>
<path class="l4" d="M1483.97 1057.99L1483.97 1090.32"/>
<path class="l4" d="M1467.8 1074.16L1475.34 1074.16"/>
<circle class="l4" cx="1479.65" cy="1074.16" r="4.31151" style="fill:none;"/>
<path class="l4" d="M1117.49 556.774L1133.65 556.774"/>
<path class="l4" d="M1112.1 589.111L1112.1 599.889"/>
<path class="l4" d="M1112.1 513.659L1112.1 524.438"/>
<path class="l4" d="M1119.64 543.84L1119.64 569.709"/>
<path class="l4" d="M1112.1 582.643L1112.1 589.111"/>
<path class="l4" d="M1112.1 524.438L1112.1 530.905"/>
<path class="l4" d="M1112.1 530.905L1118.56 534.139"/>
<path class="l4" d="M1105.63 540.606L1118.56 534.139"/>
<path class="l4" d="M1105.63 540.606L1118.56 547.073"/>
<path class="l4" d="M1105.63 553.541L1118.56 547.073"/>
<path class="l4" d="M1105.63 553.541L1118.56 560.008"/>
<path class="l4" d="M1105.63 566.475L1118.56 560.008"/>
<path class="l4" d="M1105.63 566.475L1118.56 572.942"/>
<path class="l4" d="M1105.63 579.41L1118.56 572.942"/>
<path class="l4" d="M1105.63 579.41L1112.1 582.643"/>
<path class="l4" d="M1780.38 1090.32L1801.94 1090.32"/>
<path class="l4" d="M1801.94 1090.32L1801.94 1106.49"/>
<path class="l4" d="M1780.38 1057.99L1801.94 1057.99"/>
<path class="l4" d="M1801.94 1041.82L1801.94 1057.99"/>
<path class="l4" d="M1780.38 1074.16L1801.94 1074.16"/>
<path class="l4" d="M1787.93 1057.99L1798.71 1052.6"/>
<path class="l4" d="M1787.93 1057.99L1798.71 1063.38"/>
<path class="l4" d="M1780.38 1057.99L1780.38 1090.32"/>
<path class="l4" d="M1774.99 1057.99L1774.99 1090.32"/>
<path class="l4" d="M1758.82 1074.16L1766.37 1074.16"/>
<circle class="l4" cx="1770.68" cy="1074.16" r="4.31151" style="fill:none;"/>
<path class="l4" d="M465.37 583.721L476.149 578.332"/>
<path class="l4" d="M465.37 583.721L476.149 589.111"/>
<path class="l4" d="M465.37 551.385L486.927 551.385"/>
<path class="l4" d="M465.37 535.217L465.37 551.385"/>
<path class="l4" d="M465.37 583.721L486.927 583.721"/>
<path class="l4" d="M465.37 583.721L465.37 599.889"/>
<path class="l4" d="M465.37 567.553L486.927 567.553"/>
<path class="l4" d="M486.927 551.385L486.927 583.721"/>
<path class="l4" d="M492.317 551.385L492.317 583.721"/>
<path class="l4" d="M492.317 567.553L508.485 567.553"/>
<path class="l4" d="M971.973 578.332L982.752 583.721"/>
<path class="l4" d="M971.973 589.111L982.752 583.721"/>
<path class="l4" d="M961.194 551.385L982.752 551.385"/>
<path class="l4" d="M982.752 535.217L982.752 551.385"/>
<path class="l4" d="M961.194 583.721L982.752 583.721"/>
<path class="l4" d="M982.752 583.721L982.752 599.889"/>
<path class="l4" d="M961.194 567.553L982.752 567.553"/>
<path class="l4" d="M961.194 551.385L961.194 583.721"/>
<path class="l4" d="M955.805 551.385L955.805 583.721"/>
<path class="l4" d="M939.636 567.553L955.805 567.553"/>
<path class="l4" d="M1112.1 680.73L1122.88 675.341"/>
<path class="l4" d="M1112.1 680.73L1122.88 686.12"/>
<path class="l4" d="M1112.1 648.394L1133.65 648.394"/>
<path class="l4" d="M1112.1 632.226L1112.1 648.394"/>
<path class="l4" d="M1112.1 680.73L1133.65 680.73"/>
<path class="l4" d="M1112.1 680.73L1112.1 696.898"/>
<path class="l4" d="M1112.1 664.562L1133.65 664.562"/>
<path class="l4" d="M1133.65 648.394L1133.65 680.73"/>
<path class="l4" d="M1139.04 648.394L1139.04 680.73"/>
<path class="l4" d="M1139.04 664.562L1155.21 664.562"/>
<path class="l4" d="M918.079 131.012L939.636 131.012"/>
<path class="l4" d="M939.636 131.012L939.636 147.18"/>
<path class="l4" d="M918.079 98.6759L939.636 98.6759"/>
<path class="l4" d="M939.636 82.5077L939.636 98.6759"/>
<path class="l4" d="M918.079 114.844L939.636 114.844"/>
<path class="l4" d="M925.624 98.6759L936.403 93.2865"/>
<path class="l4" d="M925.624 98.6759L936.403 104.065"/>
<path class="l4" d="M918.079 98.6759L918.079 131.012"/>
<path class="l4" d="M912.689 98.6759L912.689 131.012"/>
<path class="l4" d="M896.521 114.844L904.066 114.844"/>
<circle class="l4" cx="908.378" cy="114.844" r="4.31151" style="fill:none;"/>
<path class="l4" d="M1133.65 131.012L1155.21 131.012"/>
<path class="l4" d="M1133.65 131.012L1133.65 147.18"/>
<path class="l4" d="M1133.65 98.6759L1155.21 98.6759"/>
<path class="l4" d="M1133.65 82.5077L1133.65 98.6759"/>
<path class="l4" d="M1133.65 114.844L1155.21 114.844"/>
<path class="l4" d="M1136.89 93.2865L1147.67 98.6759"/>
<path class="l4" d="M1136.89 104.065L1147.67 98.6759"/>
<path class="l4" d="M1155.21 98.6759L1155.21 131.012"/>
<path class="l4" d="M1160.6 98.6759L1160.6 131.012"/>
<path class="l4" d="M1169.22 114.844L1176.77 114.844"/>
<circle class="l4" cx="1164.91" cy="114.844" r="4.31151" style="fill:none;"/>
<path class="l5" d="M1452.71 142.869L1461.33 142.869L1461.33 151.492L1452.71 151.492L1452.71 142.869z"/>
<path class="l5" d="M1409.59 110.533L1418.21 110.533L1418.21 119.156L1409.59 119.156L1409.59 110.533z"/>
<path class="l5" d="M1452.71 78.1962L1461.33 78.1962L1461.33 86.8192L1452.71 86.8192L1452.71 78.1962z"/>
<path class="l5" d="M1452.71 110.533L1461.33 110.533L1461.33 119.156L1452.71 119.156L1452.71 110.533z"/>
<path class="l5" d="M633.519 142.869L642.142 142.869L642.142 151.492L633.519 151.492L633.519 142.869z"/>
<path class="l5" d="M676.634 110.533L685.257 110.533L685.257 119.156L676.634 119.156L676.634 110.533z"/>
<path class="l5" d="M633.519 78.1962L642.142 78.1962L642.142 86.8192L633.519 86.8192L633.519 78.1962z"/>
<path class="l5" d="M633.519 110.533L642.142 110.533L642.142 119.156L633.519 119.156L633.519 110.533z"/>
<path class="l5" d="M1161.68 1102.18L1170.3 1102.18L1170.3 1110.8L1161.68 1110.8L1161.68 1102.18z"/>
<path class="l5" d="M1118.56 1069.84L1127.19 1069.84L1127.19 1078.47L1118.56 1078.47L1118.56 1069.84z"/>
<path class="l5" d="M1161.68 1037.51L1170.3 1037.51L1170.3 1046.13L1161.68 1046.13L1161.68 1037.51z"/>
<path class="l5" d="M1161.68 1069.84L1170.3 1069.84L1170.3 1078.47L1161.68 1078.47L1161.68 1069.84z"/>
<path class="l5" d="M1452.71 724.923L1461.33 724.923L1461.33 733.546L1452.71 733.546L1452.71 724.923z"/>
<path class="l5" d="M1409.59 757.26L1418.21 757.26L1418.21 765.883L1409.59 765.883L1409.59 757.26z"/>
<path class="l5" d="M1452.71 789.596L1461.33 789.596L1461.33 798.219L1452.71 798.219L1452.71 789.596z"/>
<path class="l5" d="M1452.71 757.26L1461.33 757.26L1461.33 765.883L1452.71 765.883L1452.71 757.26z"/>
<path class="l5" d="M633.519 724.923L642.142 724.923L642.142 733.546L633.519 733.546L633.519 724.923z"/>
<path class="l5" d="M676.634 757.26L685.257 757.26L685.257 765.883L676.634 765.883L676.634 757.26z"/>
<path class="l5" d="M633.519 789.596L642.142 789.596L642.142 798.219L633.519 798.219L633.519 789.596z"/>
<path class="l5" d="M633.519 757.26L642.142 757.26L642.142 765.883L633.519 765.883L633.519 757.26z"/>
<path class="l5" d="M547.289 1048.29L555.912 1048.29L555.912 1056.91L547.289 1056.91L547.289 1048.29z"/>
<path class="l5" d="M504.174 1080.62L512.797 1080.62L512.797 1089.25L504.174 1089.25L504.174 1080.62z"/>
<path class="l5" d="M547.289 1112.96L555.912 1112.96L555.912 1121.58L547.289 1121.58L547.289 1112.96z"/>
<path class="l5" d="M547.289 1080.62L555.912 1080.62L555.912 1089.25L547.289 1089.25L547.289 1080.62z"/>
<path class="l5" d="M827.537 1048.29L836.16 1048.29L836.16 1056.91L827.537 1056.91L827.537 1048.29z"/>
<path class="l5" d="M784.422 1080.62L793.045 1080.62L793.045 1089.25L784.422 1089.25L784.422 1080.62z"/>
<path class="l5" d="M827.537 1112.96L836.16 1112.96L836.16 1121.58L827.537 1121.58L827.537 1112.96z"/>
<path class="l5" d="M827.537 1080.62L836.16 1080.62L836.16 1089.25L827.537 1089.25L827.537 1080.62z"/>
<path class="l5" d="M935.325 423.117L943.948 423.117L943.948 431.74L935.325 431.74L935.325 423.117z"/>
<path class="l5" d="M892.21 455.454L900.833 455.454L900.833 464.077L892.21 464.077L892.21 455.454z"/>
<path class="l5" d="M935.325 487.79L943.948 487.79L943.948 496.413L935.325 496.413L935.325 487.79z"/>
<path class="l5" d="M935.325 455.454L943.948 455.454L943.948 464.077L935.325 464.077L935.325 455.454z"/>
<path class="l5" d="M1129.34 423.117L1137.97 423.117L1137.97 431.74L1129.34 431.74L1129.34 423.117z"/>
<path class="l5" d="M1172.46 455.454L1181.08 455.454L1181.08 464.077L1172.46 464.077L1172.46 455.454z"/>
<path class="l5" d="M1129.34 487.79L1137.97 487.79L1137.97 496.413L1129.34 496.413L1129.34 487.79z"/>
<path class="l5" d="M1129.34 455.454L1137.97 455.454L1137.97 464.077L1129.34 464.077L1129.34 455.454z"/>
<path class="l5" d="M524.653 60.9501L530.043 60.9501"/>
<path class="l5" d="M524.653 60.9501L520.611 55.5607L511.18 55.5607L515.222 60.9501L511.18 66.3395L520.611 66.3395L524.653 60.9501"/>
<path class="l5" d="M528.695 59.6028L531.39 59.6028L531.39 62.2975L528.695 62.2975L528.695 59.6028z"/>
<path class="l5" d="M744.271 695.551L746.966 695.551L746.966 698.246L744.271 698.246L744.271 695.551z"/>
<path class="l5" d="M1467.8 351.977L1477.23 351.977"/>
<path class="l5" d="M1486.66 351.977L1482.62 346.588L1473.19 346.588L1477.23 351.977L1473.19 357.367L1482.62 357.367L1486.66 351.977"/>
<path class="l5" d="M1466.45 350.63L1469.14 350.63L1469.14 353.325L1466.45 353.325L1466.45 350.63z"/>
<path class="l5" d="M1078.41 1072.81L1081.11 1072.81L1081.11 1075.5L1078.41 1075.5L1078.41 1072.81z"/>
<path class="l5" d="M938.289 372.188L940.984 372.188L940.984 374.882L938.289 374.882L938.289 372.188z"/>
<path class="l5" d="M1132.31 372.188L1135 372.188L1135 374.882L1132.31 374.882L1132.31 372.188z"/>
<path class="l5" d="M427.644 826.244L433.034 826.244"/>
<path class="l5" d="M427.644 826.244L423.602 820.854L414.171 820.854L418.213 826.244L414.171 831.633L423.602 831.633L427.644 826.244"/>
<path class="l5" d="M431.686 824.897L434.381 824.897L434.381 827.591L431.686 827.591L431.686 824.897z"/>
<path class="l5" d="M556.99 966.368L562.379 966.368"/>
<path class="l5" d="M556.99 966.368L552.948 960.979L543.516 960.979L547.558 966.368L543.516 971.757L552.948 971.757L556.99 966.368"/>
<path class="l5" d="M561.032 965.021L563.726 965.021L563.726 967.715L561.032 967.715L561.032 965.021z"/>
<path class="l5" d="M826.459 459.765L831.849 459.765"/>
<path class="l5" d="M826.459 459.765L822.417 454.376L812.986 454.376L817.028 459.765L812.986 465.155L822.417 465.155L826.459 459.765"/>
<path class="l5" d="M830.501 458.418L833.196 458.418L833.196 461.113L830.501 461.113L830.501 458.418z"/>
<path class="l5" d="M1252.22 459.765L1257.61 459.765"/>
<path class="l5" d="M1257.61 459.765L1261.65 454.376L1271.08 454.376L1267.04 459.765L1271.08 465.155L1261.65 465.155L1257.61 459.765"/>
<path class="l5" d="M1250.87 458.418L1253.57 458.418L1253.57 461.113L1250.87 461.113L1250.87 458.418z"/>
<path class="l5" d="M593.368 1083.59L596.063 1083.59L596.063 1086.28L593.368 1086.28L593.368 1083.59z"/>
<path class="l5" d="M485.58 1083.59L488.275 1083.59L488.275 1086.28L485.58 1086.28L485.58 1083.59z"/>
<path class="l5" d="M755.05 1083.59L757.744 1083.59L757.744 1086.28L755.05 1086.28L755.05 1083.59z"/>
<path class="l5" d="M550.253 1040.47L552.948 1040.47L552.948 1043.17L550.253 1043.17L550.253 1040.47z"/>
<path class="l5" d="M830.501 1040.47L833.196 1040.47L833.196 1043.17L830.501 1043.17L830.501 1040.47z"/>
<path class="l5" d="M873.616 1083.59L876.311 1083.59L876.311 1086.28L873.616 1086.28L873.616 1083.59z"/>
<path class="l5" d="M1240.1 1040.47L1242.79 1040.47L1242.79 1043.17L1240.1 1043.17L1240.1 1040.47z"/>
<path class="l5" d="M1229.32 1126.7L1232.01 1126.7L1232.01 1129.4L1229.32 1129.4L1229.32 1126.7z"/>
<path class="l5" d="M1046.08 458.418L1048.77 458.418L1048.77 461.113L1046.08 461.113L1046.08 458.418z"/>
<path class="l5" d="M1506.6 1102.18L1515.22 1102.18L1515.22 1110.8L1506.6 1110.8L1506.6 1102.18z"/>
<path class="l5" d="M1463.49 1069.84L1472.11 1069.84L1472.11 1078.47L1463.49 1078.47L1463.49 1069.84z"/>
<path class="l5" d="M1506.6 1037.51L1515.22 1037.51L1515.22 1046.13L1506.6 1046.13L1506.6 1037.51z"/>
<path class="l5" d="M1506.6 1069.84L1515.22 1069.84L1515.22 1078.47L1506.6 1078.47L1506.6 1069.84z"/>
<path class="l5" d="M1423.33 1072.81L1426.03 1072.81L1426.03 1075.5L1423.33 1075.5L1423.33 1072.81z"/>
<path class="l5" d="M1585.02 1040.47L1587.71 1040.47L1587.71 1043.17L1585.02 1043.17L1585.02 1040.47z"/>
<path class="l5" d="M1574.24 1126.7L1576.93 1126.7L1576.93 1129.4L1574.24 1129.4L1574.24 1126.7z"/>
<path class="l5" d="M465.37 454.376L465.37 459.765"/>
<path class="l5" d="M465.37 454.376L459.981 450.334L459.981 440.902L465.37 444.944L470.759 440.902L470.759 450.334L465.37 454.376"/>
<path class="l5" d="M464.023 458.418L466.717 458.418L466.717 461.113L464.023 461.113L464.023 458.418z"/>
<path class="l5" d="M1107.79 595.578L1116.41 595.578L1116.41 604.201L1107.79 604.201L1107.79 595.578z"/>
<path class="l5" d="M1107.79 509.348L1116.41 509.348L1116.41 517.971L1107.79 517.971L1107.79 509.348z"/>
<path class="l5" d="M1129.34 552.463L1137.97 552.463L1137.97 561.086L1129.34 561.086L1129.34 552.463z"/>
<path class="l5" d="M1186.2 555.427L1188.9 555.427L1188.9 558.122L1186.2 558.122L1186.2 555.427z"/>
<path class="l5" d="M1797.63 1102.18L1806.25 1102.18L1806.25 1110.8L1797.63 1110.8L1797.63 1102.18z"/>
<path class="l5" d="M1754.51 1069.84L1763.14 1069.84L1763.14 1078.47L1754.51 1078.47L1754.51 1069.84z"/>
<path class="l5" d="M1797.63 1037.51L1806.25 1037.51L1806.25 1046.13L1797.63 1046.13L1797.63 1037.51z"/>
<path class="l5" d="M1797.63 1069.84L1806.25 1069.84L1806.25 1078.47L1797.63 1078.47L1797.63 1069.84z"/>
<path class="l5" d="M1714.36 1072.81L1717.06 1072.81L1717.06 1075.5L1714.36 1075.5L1714.36 1072.81z"/>
<path class="l5" d="M1876.04 1040.47L1878.74 1040.47L1878.74 1043.17L1876.04 1043.17L1876.04 1040.47z"/>
<path class="l5" d="M1865.26 1126.7L1867.96 1126.7L1867.96 1129.4L1865.26 1129.4L1865.26 1126.7z"/>
<path class="l5" d="M461.058 530.905L469.681 530.905L469.681 539.528L461.058 539.528L461.058 530.905z"/>
<path class="l5" d="M504.174 563.242L512.797 563.242L512.797 571.865L504.174 571.865L504.174 563.242z"/>
<path class="l5" d="M461.058 595.578L469.681 595.578L469.681 604.201L461.058 604.201L461.058 595.578z"/>
<path class="l5" d="M461.058 563.242L469.681 563.242L469.681 571.865L461.058 571.865L461.058 563.242z"/>
<path class="l5" d="M978.44 530.905L987.063 530.905L987.063 539.528L978.44 539.528L978.44 530.905z"/>
<path class="l5" d="M935.325 563.242L943.948 563.242L943.948 571.865L935.325 571.865L935.325 563.242z"/>
<path class="l5" d="M978.44 595.578L987.063 595.578L987.063 604.201L978.44 604.201L978.44 595.578z"/>
<path class="l5" d="M978.44 563.242L987.063 563.242L987.063 571.865L978.44 571.865L978.44 563.242z"/>
<path class="l5" d="M1107.79 627.914L1116.41 627.914L1116.41 636.537L1107.79 636.537L1107.79 627.914z"/>
<path class="l5" d="M1150.9 660.251L1159.52 660.251L1159.52 668.874L1150.9 668.874L1150.9 660.251z"/>
<path class="l5" d="M1107.79 692.587L1116.41 692.587L1116.41 701.21L1107.79 701.21L1107.79 692.587z"/>
<path class="l5" d="M1107.79 660.251L1116.41 660.251L1116.41 668.874L1107.79 668.874L1107.79 660.251z"/>
<path class="l5" d="M1196.98 663.215L1199.67 663.215L1199.67 665.909L1196.98 665.909L1196.98 663.215z"/>
<path class="l5" d="M935.325 142.869L943.948 142.869L943.948 151.492L935.325 151.492L935.325 142.869z"/>
<path class="l5" d="M892.21 110.533L900.833 110.533L900.833 119.156L892.21 119.156L892.21 110.533z"/>
<path class="l5" d="M935.325 78.1962L943.948 78.1962L943.948 86.8192L935.325 86.8192L935.325 78.1962z"/>
<path class="l5" d="M935.325 110.533L943.948 110.533L943.948 119.156L935.325 119.156L935.325 110.533z"/>
<path class="l5" d="M1129.34 142.869L1137.97 142.869L1137.97 151.492L1129.34 151.492L1129.34 142.869z"/>
<path class="l5" d="M1172.46 110.533L1181.08 110.533L1181.08 119.156L1172.46 119.156L1172.46 110.533z"/>
<path class="l5" d="M1129.34 78.1962L1137.97 78.1962L1137.97 86.8192L1129.34 86.8192L1129.34 78.1962z"/>
<path class="l5" d="M1129.34 110.533L1137.97 110.533L1137.97 119.156L1129.34 119.156L1129.34 110.533z"/>
<path class="l5" d="M1035.3 490.754L1037.99 490.754L1037.99 493.449L1035.3 493.449L1035.3 490.754z"/>
<path class="l5" d="M556.99 987.926L562.379 987.926"/>
<path class="l5" d="M556.99 987.926L552.948 982.536L543.516 982.536L547.558 987.926L543.516 993.315L552.948 993.315L556.99 987.926"/>
<path class="l5" d="M561.032 986.578L563.726 986.578L563.726 989.273L561.032 989.273L561.032 986.578z"/>
<path class="l1" d="M939.636 826.244L1457.02 826.244"/>
<path class="l1" d="M1457.02 793.908L1457.02 826.244"/>
<path class="l1" d="M637.83 793.908L637.83 826.244"/>
<path class="l1" d="M637.83 826.244L939.636 826.244"/>
<path class="l1" d="M583.937 761.571L637.83 761.571"/>
<path class="l1" d="M583.937 761.571L583.937 826.244"/>
<path class="l1" d="M583.937 826.244L637.83 826.244"/>
<path class="l1" d="M756.397 1084.93L788.733 1084.93"/>
<path class="l1" d="M486.927 1084.93L508.485 1084.93"/>
<path class="l1" d="M939.636 405.871L939.636 427.429"/>
<path class="l1" d="M1133.65 405.871L1133.65 427.429"/>
<path class="l1" d="M939.636 459.765L1133.65 459.765"/>
<path class="l1" d="M637.83 147.18L637.83 729.235"/>
<path class="l1" d="M637.83 60.9501L637.83 82.5077"/>
<path class="l1" d="M637.83 60.9501L1457.02 60.9501"/>
<path class="l1" d="M1457.02 60.9501L1457.02 82.5077"/>
<path class="l1" d="M1457.02 114.844L1489.35 114.844"/>
<path class="l1" d="M1489.35 60.9501L1489.35 114.844"/>
<path class="l1" d="M1457.02 60.9501L1489.35 60.9501"/>
<path class="l1" d="M605.494 114.844L637.83 114.844"/>
<path class="l1" d="M605.494 60.9501L605.494 114.844"/>
<path class="l1" d="M605.494 60.9501L637.83 60.9501"/>
<path class="l1" d="M1457.02 147.18L1457.02 168.738"/>
<path class="l1" d="M1165.99 1074.16L1241.44 1074.16"/>
<path class="l1" d="M1165.99 1041.82L1241.44 1041.82"/>
<path class="l1" d="M1241.44 1041.82L1241.44 1074.16"/>
<path class="l1" d="M1457.02 168.738L1457.02 729.235"/>
<path class="l1" d="M1079.76 1074.16L1122.88 1074.16"/>
<path class="l1" d="M530.043 60.9501L605.494 60.9501"/>
<path class="l1" d="M422.255 826.244L583.937 826.244"/>
<path class="l1" d="M551.6 966.368L583.937 966.368"/>
<path class="l1" d="M864.185 459.765L896.521 459.765"/>
<path class="l1" d="M551.6 1041.82L551.6 1052.6"/>
<path class="l1" d="M831.849 1041.82L831.849 1052.6"/>
<path class="l1" d="M551.6 1084.93L594.715 1084.93"/>
<path class="l1" d="M594.715 1084.93L594.715 1117.27"/>
<path class="l1" d="M551.6 1117.27L594.715 1117.27"/>
<path class="l1" d="M831.849 1084.93L874.964 1084.93"/>
<path class="l1" d="M874.964 1084.93L874.964 1117.27"/>
<path class="l1" d="M831.849 1117.27L874.964 1117.27"/>
<path class="l1" d="M1165.99 1106.49L1165.99 1128.05"/>
<path class="l1" d="M1165.99 1128.05L1241.44 1128.05"/>
<path class="l1" d="M821.07 459.765L853.406 459.765"/>
<path class="l1" d="M853.406 459.765L864.185 459.765"/>
<path class="l1" d="M1219.88 459.765L1252.22 459.765"/>
<path class="l1" d="M1510.91 1074.16L1586.36 1074.16"/>
<path class="l1" d="M1510.91 1041.82L1586.36 1041.82"/>
<path class="l1" d="M1586.36 1041.82L1586.36 1074.16"/>
<path class="l1" d="M1424.68 1074.16L1467.8 1074.16"/>
<path class="l1" d="M1510.91 1106.49L1510.91 1128.05"/>
<path class="l1" d="M1510.91 1128.05L1586.36 1128.05"/>
<path class="l1" d="M1176.77 459.765L1219.88 459.765"/>
<path class="l1" d="M1133.65 556.774L1187.55 556.774"/>
<path class="l1" d="M1801.94 1074.16L1877.39 1074.16"/>
<path class="l1" d="M1801.94 1041.82L1877.39 1041.82"/>
<path class="l1" d="M1877.39 1041.82L1877.39 1074.16"/>
<path class="l1" d="M1715.71 1074.16L1758.82 1074.16"/>
<path class="l1" d="M1801.94 1106.49L1801.94 1128.05"/>
<path class="l1" d="M1801.94 1128.05L1877.39 1128.05"/>
<path class="l1" d="M1112.1 599.889L1112.1 621.447"/>
<path class="l1" d="M594.715 1117.27L627.052 1117.27"/>
<path class="l1" d="M465.37 599.889L465.37 826.244"/>
<path class="l1" d="M443.812 567.553L465.37 567.553"/>
<path class="l1" d="M443.812 567.553L443.812 826.244"/>
<path class="l1" d="M508.485 524.438L508.485 567.553"/>
<path class="l1" d="M465.37 524.438L508.485 524.438"/>
<path class="l1" d="M465.37 524.438L465.37 535.217"/>
<path class="l1" d="M465.37 448.986L465.37 524.438"/>
<path class="l1" d="M508.485 567.553L939.636 567.553"/>
<path class="l1" d="M982.752 599.889L982.752 826.244"/>
<path class="l1" d="M982.752 567.553L1015.09 567.553"/>
<path class="l1" d="M1015.09 567.553L1015.09 826.244"/>
<path class="l1" d="M982.752 492.102L982.752 535.217"/>
<path class="l1" d="M939.636 492.102L982.752 492.102"/>
<path class="l1" d="M982.752 492.102L1133.65 492.102"/>
<path class="l1" d="M1112.1 492.102L1112.1 513.659"/>
<path class="l1" d="M1112.1 621.447L1112.1 632.226"/>
<path class="l1" d="M1079.76 664.562L1112.1 664.562"/>
<path class="l1" d="M1079.76 664.562L1079.76 826.244"/>
<path class="l1" d="M1112.1 696.898L1112.1 826.244"/>
<path class="l1" d="M1155.21 664.562L1198.33 664.562"/>
<path class="l1" d="M939.636 147.18L939.636 405.871"/>
<path class="l1" d="M1133.65 147.18L1133.65 405.871"/>
<path class="l1" d="M1101.32 114.844L1133.65 114.844"/>
<path class="l1" d="M1101.32 60.9501L1101.32 114.844"/>
<path class="l1" d="M1133.65 60.9501L1133.65 82.5077"/>
<path class="l1" d="M939.636 60.9501L939.636 82.5077"/>
<path class="l1" d="M939.636 114.844L961.194 114.844"/>
<path class="l1" d="M961.194 60.9501L961.194 114.844"/>
<path class="l1" d="M680.946 114.844L896.521 114.844"/>
<path class="l1" d="M874.964 114.844L874.964 190.296"/>
<path class="l1" d="M874.964 190.296L939.636 190.296"/>
<path class="l1" d="M1176.77 114.844L1413.9 114.844"/>
<path class="l1" d="M1133.65 190.296L1198.33 190.296"/>
<path class="l1" d="M1198.33 114.844L1198.33 190.296"/>
<path class="l1" d="M680.946 761.571L1424.68 761.571"/>
<path class="l1" d="M637.83 696.898L745.618 696.898"/>
<path class="l1" d="M745.618 696.898L745.618 761.571"/>
<path class="l1" d="M1489.35 60.9501L1877.39 60.9501"/>
<path class="l1" d="M1457.02 351.977L1467.8 351.977"/>
<path class="l1" d="M1457.02 761.571L1500.13 761.571"/>
<path class="l1" d="M1500.13 761.571L1500.13 826.244"/>
<path class="l1" d="M1457.02 826.244L1500.13 826.244"/>
<path class="l1" d="M551.6 987.926L583.937 987.926"/>
<circle class="l1" cx="605.494" cy="60.9501" r="4.31151"/>
<circle class="l1" cx="605.494" cy="60.9501" r="4.31151"/>
<circle class="l1" cx="637.83" cy="60.9501" r="4.31151"/>
<circle class="l1" cx="605.494" cy="60.9501" r="4.31151"/>
<circle class="l1" cx="637.83" cy="60.9501" r="4.31151"/>
<circle class="l1" cx="1457.02" cy="60.9501" r="4.31151"/>
<circle class="l1" cx="637.83" cy="60.9501" r="4.31151"/>
<circle class="l1" cx="465.37" cy="524.438" r="4.31151"/>
<circle class="l1" cx="465.37" cy="524.438" r="4.31151"/>
<circle class="l1" cx="465.37" cy="524.438" r="4.31151"/>
<circle class="l1" cx="443.812" cy="826.244" r="4.31151"/>
<circle class="l1" cx="465.37" cy="826.244" r="4.31151"/>
<circle class="l1" cx="745.618" cy="761.571" r="4.31151"/>
<circle class="l1" cx="637.83" cy="696.898" r="4.31151"/>
<circle class="l1" cx="583.937" cy="826.244" r="4.31151"/>
<circle class="l1" cx="583.937" cy="826.244" r="4.31151"/>
<circle class="l1" cx="637.83" cy="826.244" r="4.31151"/>
<circle class="l1" cx="583.937" cy="826.244" r="4.31151"/>
<circle class="l1" cx="637.83" cy="826.244" r="4.31151"/>
<circle class="l1" cx="637.83" cy="826.244" r="4.31151"/>
<circle class="l1" cx="594.715" cy="1117.27" r="4.31151"/>
<circle class="l1" cx="594.715" cy="1117.27" r="4.31151"/>
<circle class="l1" cx="594.715" cy="1117.27" r="4.31151"/>
<circle class="l1" cx="1198.33" cy="114.844" r="4.31151"/>
<circle class="l1" cx="1133.65" cy="190.296" r="4.31151"/>
<circle class="l1" cx="939.636" cy="190.296" r="4.31151"/>
<circle class="l1" cx="874.964" cy="114.844" r="4.31151"/>
<circle class="l1" cx="961.194" cy="60.9501" r="4.31151"/>
<circle class="l1" cx="939.636" cy="60.9501" r="4.31151"/>
<circle class="l1" cx="1133.65" cy="60.9501" r="4.31151"/>
<circle class="l1" cx="1101.32" cy="60.9501" r="4.31151"/>
<circle class="l1" cx="1112.1" cy="492.102" r="4.31151"/>
<circle class="l1" cx="982.752" cy="492.102" r="4.31151"/>
<circle class="l1" cx="982.752" cy="492.102" r="4.31151"/>
<circle class="l1" cx="982.752" cy="492.102" r="4.31151"/>
<circle class="l1" cx="1015.09" cy="826.244" r="4.31151"/>
<circle class="l1" cx="982.752" cy="826.244" r="4.31151"/>
<circle class="l1" cx="1112.1" cy="826.244" r="4.31151"/>
<circle class="l1" cx="1079.76" cy="826.244" r="4.31151"/>
<circle class="l1" cx="1457.02" cy="826.244" r="4.31151"/>
<circle class="l1" cx="1489.35" cy="60.9501" r="4.31151"/>
<circle class="l1" cx="1457.02" cy="60.9501" r="4.31151"/>
<circle class="l1" cx="1489.35" cy="60.9501" r="4.31151"/>
<circle class="l1" cx="1489.35" cy="60.9501" r="4.31151"/>
<circle class="l1" cx="1457.02" cy="60.9501" r="4.31151"/>
<circle class="l1" cx="1457.02" cy="351.977" r="4.31151"/>
<circle class="l1" cx="1457.02" cy="826.244" r="4.31151"/>
<circle class="l1" cx="1457.02" cy="826.244" r="4.31151"/>
</svg>
