<svg xmlns="http://www.w3.org/2000/svg" xmlns:xlink="http://www.w3.org/1999/xlink" width="2526" height="1189" version="1.1">
<style type="text/css">
.l0{
 fill: #000000;
  stroke: #000000;
  stroke-linecap:round;
  stroke-linejoin:round;
  stroke-width: 1.16411;
}
.l1{
 fill: #00ccee;
  stroke: #00ccee;
  stroke-linecap:round;
  stroke-linejoin:round;
  stroke-width: 1.16411;
}
.l2{
  fill: none;
  stroke: #3f3f3f;
  stroke-linecap:round;
  stroke-linejoin:round;
  stroke-width: 1.16411;
}
.l3{
 fill: #cccccc; fill-opacity: 0.5;
  stroke: #cccccc;
  stroke-linecap:round;
  stroke-linejoin:round;
  stroke-width: 1.16411;
}
.l4{
 fill: #88dd00;
  stroke: #88dd00;
  stroke-linecap:round;
  stroke-linejoin:round;
  stroke-width: 1.16411;
}
.l5{
 fill: #bb2200;
  stroke: #bb2200;
  stroke-linecap:round;
  stroke-linejoin:round;
  stroke-width: 1.16411;
}
.l6{
 fill: #00ccee; fill-opacity: 0.5;
  stroke: #00ccee;
  stroke-linecap:round;
  stroke-linejoin:round;
  stroke-width: 1.16411;
}
.l7{
 fill: #ff0000; fill-opacity: 0.5;
  stroke: #ff0000;
  stroke-linecap:round;
  stroke-linejoin:round;
  stroke-width: 1.16411;
}
.l8{
 fill: #ffff00; fill-opacity: 0.5;
  stroke: #ffff00;
  stroke-linecap:round;
  stroke-linejoin:round;
  stroke-width: 1.16411;
}
.l9{
 fill: #ffffff; fill-opacity: 0.5;
  stroke: #ffffff;
  stroke-linecap:round;
  stroke-linejoin:round;
  stroke-width: 1.16411;
}
.l10{
 fill: #ff00ff;
  stroke: #ff00ff;
  stroke-linecap:round;
  stroke-linejoin:round;
  stroke-width: 1.16411;
}
.l11{
 fill: #00ff00; fill-opacity: 0.5;
  stroke: #00ff00;
  stroke-linecap:round;
  stroke-linejoin:round;
  stroke-width: 1.16411;
}
.l12{
 fill: #0044dd; fill-opacity: 0.5;
  stroke: #0044dd;
  stroke-linecap:round;
  stroke-linejoin:round;
  stroke-width: 1.16411;
}
.l13{
 fill: #aaaa00; fill-opacity: 0.5;
  stroke: #aaaa00;
  stroke-linecap:round;
  stroke-linejoin:round;
  stroke-width: 1.16411;
}
.l14{
  fill: none;
  stroke: #aaccaa;
  stroke-linecap:round;
  stroke-linejoin:round;
  stroke-width: 1.16411;
}
.l15{
 fill: #ff7777; fill-opacity: 0.5;
  stroke: #ff7777;
  stroke-linecap:round;
  stroke-linejoin:round;
  stroke-width: 1.16411;
}
.l16{
 fill: #bfff81; fill-opacity: 0.5;
  stroke: #bfff81;
  stroke-linecap:round;
  stroke-linejoin:round;
  stroke-width: 1.16411;
}
.l17{
  fill: none;
  stroke: #00ffcc;
  stroke-linecap:round;
  stroke-linejoin:round;
  stroke-width: 1.16411;
}
.l18{
 fill: #ce0097; fill-opacity: 0.5;
  stroke: #ce0097;
  stroke-linecap:round;
  stroke-linejoin:round;
  stroke-width: 1.16411;
}
.l19{
  fill: none;
  stroke: #d2d46b;
  stroke-linecap:round;
  stroke-linejoin:round;
  stroke-width: 1.16411;
}
.l20{
  fill: none;
  stroke: #ef6158;
  stroke-linecap:round;
  stroke-linejoin:round;
  stroke-width: 1.16411;
}
.l21{
  fill: none;
  stroke: #fdb200;
  stroke-linecap:round;
  stroke-linejoin:round;
  stroke-width: 1.16411;
}
text {font-family: Sans-Serif;}
</style>
<rect class="l0" x="0" y="0" width="2526" height="1189"/>
<text fill="#00ccee"  xml:space="preserve" font-size="18.4964" transform="translate(470.698, 100.65)" >VDD_1V8</text>
<text fill="#00ccee"  xml:space="preserve" font-size="18.4964" transform="translate(623.725, 1070.74)" >VSS</text>
<text fill="#00ccee"  xml:space="preserve" font-size="18.4964" transform="translate(451.682, 626.458)" >PWRUP_1V8</text>
<text fill="#00ccee"  xml:space="preserve" font-size="18.4964" transform="translate(1273.78, 305.447)" >LPI</text>
<text fill="#00ccee"  xml:space="preserve" font-size="18.4964" transform="translate(1273.78, 337.783)" >LPO</text>
<text fill="#00ccee"  xml:space="preserve" font-size="18.4964" transform="translate(1704.93, 273.11)" >IBP_1U[3:0]</text>
<text fill="#00ccee"  xml:space="preserve" font-size="18.4964" transform="translate(881.639, 413.908)" >VDD_1V8</text>
<text fill="#00ccee"  xml:space="preserve" font-size="18.4964" transform="translate(926.878, 543.254)" >VSS</text>
<text fill="#00ccee"  xml:space="preserve" font-size="18.4964" transform="translate(1023.17, 780.387)" >VD1</text>
<text fill="#00ccee"  xml:space="preserve" font-size="18.4964" transform="translate(1400.43, 963.626)" >VD2</text>
<text fill="#00ccee"  xml:space="preserve" font-size="18.4964" transform="translate(1400.43, 715.714)" >VR1</text>
<text fill="#00ccee"  xml:space="preserve" font-size="18.4964" transform="translate(763.073, 133.66)" >VDD_1V8</text>
<text fill="#00ccee"  xml:space="preserve" font-size="18.4964" transform="translate(829.221, 435.466)" >PWRUP_B_1V8</text>
<text fill="#00ccee"  xml:space="preserve" font-size="18.4964" transform="translate(710.654, 176.775)" >PWRUP_B_1V8</text>
<text fill="#00ccee"  xml:space="preserve" font-size="18.4964" transform="translate(709.634, 198.333)" >PWRUP_N_1V8</text>
<text fill="#00ccee"  xml:space="preserve" font-size="18.4964" transform="translate(808.311, 219.89)" >VSS</text>
<text fill="#00ccee"  xml:space="preserve" font-size="15.1334" transform="translate(654.071, 573.368)" >VDD_1V8</text>
<text fill="#00ccee"  xml:space="preserve" font-size="15.1334" transform="translate(712.642, 659.598)" >VSS</text>
<text fill="#00ccee"  xml:space="preserve" font-size="15.1334" transform="translate(845.322, 616.483)" >PWRUP_B_1V8</text>
<text fill="#00ccee"  xml:space="preserve" font-size="15.1334" transform="translate(791.428, 530.252)" >PWRUP_N_1V8</text>
<text fill="#cccccc"  xml:space="preserve" font-size="14.0124" transform="translate(1888.17, 1101.43)" >Updated</text>
<text fill="#cccccc"  xml:space="preserve" font-size="14.0124" transform="translate(362.971, 1166.1)" >Library/Cell</text>
<text fill="#cccccc"  xml:space="preserve" font-size="14.0124" transform="translate(1888.17, 1079.87)" >Designer</text>
<text fill="#cccccc"  xml:space="preserve" font-size="14.0124" transform="translate(1888.17, 1122.99)" >Modified</text>
<text fill="#cccccc"  xml:space="preserve" font-size="14.0124" transform="translate(1893.56, 1144.55)" >Copyright</text>
<text fill="#cccccc"  xml:space="preserve" font-size="14.0124" transform="translate(1974.4, 1101.43)" >wulff</text>
<text fill="#cccccc"  xml:space="preserve" font-size="14.0124" transform="translate(1974.4, 1122.99)" >2023-05-23  18:36:40</text>
<text fill="#cccccc"  xml:space="preserve" font-size="14.0124" transform="translate(1974.4, 1144.55)" >Carsten Wulff Software</text>
<text fill="#cccccc"  xml:space="preserve" font-size="14.0124" transform="translate(486.927, 1166.1)" >RPLY_BIAS</text>
<text fill="#cccccc"  xml:space="preserve" font-size="14.0124" transform="translate(1974.4, 1079.87)" >Carsten Wulff</text>
<text fill="#cccccc"  xml:space="preserve" font-size="11.2099" transform="translate(1017.78, 1035.83)" >pnp_05v5_W3p40L3p40</text>
<text fill="#cccccc"  xml:space="preserve" font-size="11.2099" transform="translate(1017.78, 991.368)" >Q1</text>
<text fill="#ff0000"  xml:space="preserve" font-size="8.40745" transform="translate(1004.31, 978.718)" >e</text>
<text fill="#ff0000"  xml:space="preserve" font-size="8.40745" transform="translate(1004.31, 1046.09)" >c</text>
<text fill="#ff0000"  xml:space="preserve" font-size="8.40745" transform="translate(977.402, 1005.66)" >b</text>
<text fill="#cccccc"  xml:space="preserve" font-size="11.2099" transform="translate(1017.78, 1022.36)" >m=1</text>
<text fill="#cccccc"  xml:space="preserve" font-size="11.2099" transform="translate(1395.04, 1035.83)" >pnp_05v5_W3p40L3p40</text>
<text fill="#cccccc"  xml:space="preserve" font-size="11.2099" transform="translate(1395.04, 991.368)" >Q2[7:0]</text>
<text fill="#ff0000"  xml:space="preserve" font-size="8.40745" transform="translate(1381.57, 978.718)" >e</text>
<text fill="#ff0000"  xml:space="preserve" font-size="8.40745" transform="translate(1381.57, 1046.09)" >c</text>
<text fill="#ff0000"  xml:space="preserve" font-size="8.40745" transform="translate(1354.66, 1005.66)" >b</text>
<text fill="#cccccc"  xml:space="preserve" font-size="11.2099" transform="translate(1395.04, 1022.36)" >m=1</text>
<text fill="#cccccc"  xml:space="preserve" font-size="8.40745" transform="translate(1416.1, 753.569) rotate(270)" >x20</text>
<text fill="#cccccc"  xml:space="preserve" font-size="8.40745" transform="translate(1426.88, 806.826) rotate(270)" >SUNTR_RPPO16</text>
<text fill="#cccccc"  xml:space="preserve" font-size="16.8149" transform="translate(1261.02, 548.151) rotate(270)" >RPLYBS_OTAN</text>
<text fill="#cccccc"  xml:space="preserve" font-size="11.2099" transform="translate(1087.78, 400.482) rotate(270)" >xota</text>
<text fill="#cccccc"  xml:space="preserve" font-size="11.2099" transform="translate(1095.93, 411.738)" >VDD_1V8</text>
<text fill="#cccccc"  xml:space="preserve" font-size="11.2099" transform="translate(1204.19, 373.563) rotate(270)" >VO</text>
<text fill="#cccccc"  xml:space="preserve" font-size="11.2099" transform="translate(1210.74, 540.606) rotate(270)" >VIP</text>
<text fill="#cccccc"  xml:space="preserve" font-size="11.2099" transform="translate(1189.18, 540.606) rotate(270)" >VIN</text>
<text fill="#cccccc"  xml:space="preserve" font-size="11.2099" transform="translate(1095.93, 433.296)" >PWRUP_1V8</text>
<text fill="#cccccc"  xml:space="preserve" font-size="11.2099" transform="translate(1095.93, 541.084)" >VSS</text>
<text fill="#cccccc"  xml:space="preserve" font-size="11.2099" transform="translate(1218.98, 385.946)" >IBP_2U</text>
<text fill="#cccccc"  xml:space="preserve" font-size="11.2099" transform="translate(1095.93, 454.854)" >PWRUP_N_1V8</text>
<text fill="#cccccc"  xml:space="preserve" font-size="11.2099" transform="translate(575.868, 235.498) rotate(270)" >A</text>
<text fill="#cccccc"  xml:space="preserve" font-size="11.2099" transform="translate(577.947, 292.694) rotate(270)" >B</text>
<text fill="#cccccc"  xml:space="preserve" font-size="14.0124" transform="translate(616.273, 278.47)" >SUNTR_CAP_20</text>
<text fill="#cccccc"  xml:space="preserve" font-size="14.0124" transform="translate(616.273, 294.639)" >M=</text>
<text fill="#cccccc"  xml:space="preserve" font-size="11.2099" transform="translate(616.273, 259.758)" >xcap[5:0]</text>
<text fill="#cccccc"  xml:space="preserve" font-size="16.8149" transform="translate(1622.47, 145.202)" >RPLYBS_CMPMOS</text>
<text fill="#cccccc"  xml:space="preserve" font-size="11.2099" transform="translate(891.132, 112.088)" >xcm</text>
<text fill="#cccccc"  xml:space="preserve" font-size="11.2099" transform="translate(901.911, 131.49)" >VDD_1V8</text>
<text fill="#cccccc"  xml:space="preserve" font-size="11.2099" transform="translate(1204.19, 217.243) rotate(270)" >IBP_G</text>
<text fill="#cccccc"  xml:space="preserve" font-size="11.2099" transform="translate(1016.72, 217.243) rotate(270)" >IBP_A</text>
<text fill="#cccccc"  xml:space="preserve" font-size="11.2099" transform="translate(1393.98, 217.243) rotate(270)" >IBP_B</text>
<text fill="#cccccc"  xml:space="preserve" font-size="11.2099" transform="translate(1620.33, 217.243) rotate(270)" >IBP_1U[3:0]</text>
<text fill="#cccccc"  xml:space="preserve" font-size="11.2099" transform="translate(1340.08, 217.243) rotate(270)" >IBP_1U_A</text>
<text fill="#cccccc"  xml:space="preserve" font-size="11.2099" transform="translate(901.911, 174.605)" >PWRUP_1V8</text>
<text fill="#cccccc"  xml:space="preserve" font-size="11.2099" transform="translate(901.911, 196.163)" >PWRUP_N_1V8</text>
<text fill="#cccccc"  xml:space="preserve" font-size="11.2099" transform="translate(901.911, 217.72)" >VSS</text>
<text fill="#cccccc"  xml:space="preserve" font-size="22.4199" transform="translate(1090.54, 145.98)" >Main Current Mirror (includes startup circuit)</text>
<text fill="#cccccc"  xml:space="preserve" font-size="8.40745" transform="translate(679.868, 624.877)" >Y</text>
<text fill="#cccccc"  xml:space="preserve" font-size="8.40745" transform="translate(649.687, 624.877)" >A</text>
<text fill="#cccccc"  xml:space="preserve" font-size="5.60497" transform="translate(661.675, 584.799) rotate(270)" >AVDD</text>
<text fill="#cccccc"  xml:space="preserve" font-size="5.60497" transform="translate(660.851, 673.049) rotate(270)" >AVSS</text>
<text fill="#cccccc"  xml:space="preserve" font-size="8.40745" transform="translate(680.946, 646.435)" >SUNTR_IVX1_CV</text>
<text fill="#cccccc"  xml:space="preserve" font-size="8.40745" transform="translate(680.946, 635.656)" >x15</text>
<text fill="#cccccc"  xml:space="preserve" font-size="8.40745" transform="translate(787.656, 624.877)" >Y</text>
<text fill="#cccccc"  xml:space="preserve" font-size="8.40745" transform="translate(757.475, 624.877)" >A</text>
<text fill="#cccccc"  xml:space="preserve" font-size="5.60497" transform="translate(769.463, 584.799) rotate(270)" >AVDD</text>
<text fill="#cccccc"  xml:space="preserve" font-size="5.60497" transform="translate(768.639, 673.049) rotate(270)" >AVSS</text>
<text fill="#cccccc"  xml:space="preserve" font-size="8.40745" transform="translate(788.733, 646.435)" >SUNTR_IVX1_CV</text>
<text fill="#cccccc"  xml:space="preserve" font-size="8.40745" transform="translate(788.733, 635.656)" >x5</text>
<path class="l4" d="M1963.62 1084.93L1963.62 1106.49"/>
<path class="l4" d="M1823.5 1149.61L1823.5 1171.16"/>
<path class="l4" d="M2039.07 1149.61L2039.07 1171.16"/>
<path class="l4" d="M1607.92 1149.61L1607.92 1171.16"/>
<path class="l4" d="M481.538 1149.61L481.538 1171.16"/>
<path class="l4" d="M336.024 1149.61L357.582 1149.61"/>
<path class="l4" d="M357.582 1149.61L357.582 1171.16"/>
<path class="l4" d="M2168.42 1149.61L2189.98 1149.61"/>
<path class="l4" d="M2168.42 1149.61L2168.42 1171.16"/>
<path class="l4" d="M1963.62 1063.38L1963.62 1084.93"/>
<path class="l4" d="M1963.62 1106.49L1963.62 1128.05"/>
<path class="l4" style="fill:none;" d="M1882.78 1149.61L2189.98 1149.61L2189.98 1063.38L1882.78 1063.38L1882.78 1149.61"/>
<path class="l4" style="fill:none;" d="M336.024 1171.16L2189.98 1171.16L2189.98 17.835L336.024 17.835L336.024 1171.16"/>
<path class="l4" style="fill:none;" d="M1882.78 1084.93L2168.42 1084.93L2168.42 1063.38L1882.78 1063.38L1882.78 1084.93"/>
<path class="l4" style="fill:none;" d="M336.024 1171.16L2189.98 1171.16L2189.98 1149.61L336.024 1149.61L336.024 1171.16"/>
<path class="l4" style="fill:none;" d="M1882.78 1149.61L2168.42 1149.61L2168.42 1128.05L1882.78 1128.05L1882.78 1149.61"/>
<path class="l4" style="fill:none;" d="M1882.78 1128.05L2168.42 1128.05L2168.42 1106.49L1882.78 1106.49L1882.78 1128.05"/>
<path class="l4" style="fill:none;" d="M1882.78 1106.49L2168.42 1106.49L2168.42 1084.93L1882.78 1084.93L1882.78 1106.49"/>
<path class="l4" d="M993.53 977.147L993.53 1041.82"/>
<path class="l4" d="M971.973 1009.48L993.53 1009.48"/>
<path class="l4" d="M1004.31 987.926L1015.09 977.147"/>
<path class="l4" d="M993.53 1020.26L1015.09 1041.82"/>
<path class="l4" d="M993.53 998.704L1009.7 993.315L998.92 982.536L993.53 998.704"/>
<path class="l4" d="M1370.79 977.147L1370.79 1041.82"/>
<path class="l4" d="M1349.23 1009.48L1370.79 1009.48"/>
<path class="l4" d="M1381.57 987.926L1392.35 977.147"/>
<path class="l4" d="M1370.79 1020.26L1392.35 1041.82"/>
<path class="l4" d="M1370.79 998.704L1386.96 993.315L1376.18 982.536L1370.79 998.704"/>
<path class="l4" d="M1370.79 772.35L1386.96 772.35"/>
<path class="l4" d="M1392.35 804.686L1392.35 815.465"/>
<path class="l4" d="M1392.35 729.235L1392.35 740.014"/>
<path class="l4" d="M1384.8 759.415L1384.8 785.284"/>
<path class="l4" d="M1392.35 798.219L1392.35 804.686"/>
<path class="l4" d="M1392.35 740.014L1392.35 746.481"/>
<path class="l4" d="M1385.88 749.715L1392.35 746.481"/>
<path class="l4" d="M1385.88 749.715L1398.81 756.182"/>
<path class="l4" d="M1385.88 762.649L1398.81 756.182"/>
<path class="l4" d="M1385.88 762.649L1398.81 769.116"/>
<path class="l4" d="M1385.88 775.584L1398.81 769.116"/>
<path class="l4" d="M1385.88 775.584L1398.81 782.051"/>
<path class="l4" d="M1385.88 788.518L1398.81 782.051"/>
<path class="l4" d="M1385.88 788.518L1398.81 794.985"/>
<path class="l4" d="M1392.35 798.219L1398.81 794.985"/>
<path class="l4" d="M1090.54 351.977L1090.54 545.995"/>
<path class="l4" d="M1263 351.977L1263 545.995"/>
<path class="l4" d="M1090.54 545.995L1263 545.995"/>
<path class="l4" d="M1090.54 351.977L1263 351.977"/>
<path class="l4" d="M1068.98 405.871L1090.54 405.871"/>
<path class="l4" d="M1198.33 330.42L1198.33 351.977"/>
<path class="l4" d="M1209.11 545.995L1209.11 567.553"/>
<path class="l4" d="M1187.55 545.995L1187.55 567.553"/>
<path class="l4" d="M1068.98 427.429L1090.54 427.429"/>
<path class="l4" d="M1068.98 535.217L1090.54 535.217"/>
<path class="l4" d="M1176.77 481.323L1219.88 481.323"/>
<path class="l4" d="M1198.33 427.429L1219.88 481.323"/>
<path class="l4" d="M1176.77 481.323L1198.33 427.429"/>
<path class="l4" d="M1187.55 481.323L1187.55 513.659"/>
<path class="l4" d="M1209.11 481.323L1209.11 513.659"/>
<path class="l4" d="M1198.33 384.314L1198.33 427.429"/>
<path class="l4" d="M1263 384.314L1284.56 384.314"/>
<path class="l4" d="M1068.98 448.986L1090.54 448.986"/>
<path class="l4" d="M583.937 222.632L583.937 244.189"/>
<path class="l4" d="M583.937 276.526L583.937 298.083"/>
<path class="l4" d="M562.379 254.968L605.494 254.968"/>
<path class="l4" d="M562.379 265.747L605.494 265.747"/>
<path class="l4" d="M583.937 244.189L583.937 254.968"/>
<path class="l4" d="M583.937 265.747L583.937 276.526"/>
<path class="l4" d="M896.521 114.844L1737.27 114.844"/>
<path class="l4" d="M896.521 222.632L1737.27 222.632"/>
<path class="l4" d="M896.521 114.844L896.521 222.632"/>
<path class="l4" d="M1737.27 114.844L1737.27 222.632"/>
<path class="l4" d="M874.964 125.623L896.521 125.623"/>
<path class="l4" d="M1198.33 222.632L1198.33 244.189"/>
<path class="l4" d="M1015.09 222.632L1015.09 244.189"/>
<path class="l4" d="M1392.35 222.632L1392.35 244.189"/>
<path class="l4" d="M1618.7 222.632L1618.7 244.189"/>
<path class="l4" d="M1338.45 222.632L1338.45 244.189"/>
<path class="l4" d="M874.964 168.738L896.521 168.738"/>
<path class="l4" d="M874.964 190.296L896.521 190.296"/>
<path class="l4" d="M874.964 211.853L896.521 211.853"/>
<path class="l4" d="M670.167 632.226L670.167 653.783"/>
<path class="l4" d="M670.167 578.332L670.167 589.111"/>
<path class="l4" d="M648.609 599.889L648.609 643.005"/>
<path class="l4" d="M648.609 643.005L691.724 621.447"/>
<path class="l4" d="M648.609 599.889L691.724 621.447"/>
<path class="l4" d="M702.503 621.447L713.282 621.447"/>
<path class="l4" d="M627.052 621.447L648.609 621.447"/>
<path class="l4" d="M670.167 589.111L670.167 610.668"/>
<path class="l4" d="M670.167 653.783L670.167 664.562"/>
<circle class="l4" cx="697.114" cy="621.447" r="5.38939" style="fill:none;"/>
<path class="l4" d="M777.955 632.226L777.955 653.783"/>
<path class="l4" d="M777.955 578.332L777.955 589.111"/>
<path class="l4" d="M756.397 599.889L756.397 643.005"/>
<path class="l4" d="M756.397 643.005L799.512 621.447"/>
<path class="l4" d="M756.397 599.889L799.512 621.447"/>
<path class="l4" d="M810.291 621.447L821.07 621.447"/>
<path class="l4" d="M734.84 621.447L756.397 621.447"/>
<path class="l4" d="M777.955 589.111L777.955 610.668"/>
<path class="l4" d="M777.955 653.783L777.955 664.562"/>
<circle class="l4" cx="804.902" cy="621.447" r="5.38939" style="fill:none;"/>
<path class="l5" d="M567.768 93.2865L573.158 93.2865"/>
<path class="l5" d="M567.768 93.2865L563.726 87.8971L554.295 87.8971L558.337 93.2865L554.295 98.6759L563.726 98.6759L567.768 93.2865"/>
<path class="l5" d="M571.81 91.9391L574.505 91.9391L574.505 94.6338L571.81 94.6338L571.81 91.9391z"/>
<path class="l5" d="M675.556 1063.38L680.946 1063.38"/>
<path class="l5" d="M675.556 1063.38L671.514 1057.99L662.083 1057.99L666.125 1063.38L662.083 1068.77L671.514 1068.77L675.556 1063.38"/>
<path class="l5" d="M679.598 1062.03L682.293 1062.03L682.293 1064.72L679.598 1064.72L679.598 1062.03z"/>
<path class="l5" d="M578.547 621.447L583.937 621.447"/>
<path class="l5" d="M578.547 621.447L574.505 626.836L565.074 626.836L569.116 621.447L565.074 616.058L574.505 616.058L578.547 621.447"/>
<path class="l5" d="M582.589 620.1L585.284 620.1L585.284 622.794L582.589 622.794L582.589 620.1z"/>
<path class="l5" d="M1252.22 298.083L1261.65 298.083"/>
<path class="l5" d="M1271.08 298.083L1267.04 292.694L1257.61 292.694L1261.65 298.083L1257.61 303.473L1267.04 303.473L1271.08 298.083"/>
<path class="l5" d="M1250.87 296.736L1253.57 296.736L1253.57 299.431L1250.87 299.431L1250.87 296.736z"/>
<path class="l5" d="M1252.22 330.42L1261.65 330.42"/>
<path class="l5" d="M1271.08 330.42L1267.04 325.03L1257.61 325.03L1261.65 330.42L1257.61 335.809L1267.04 335.809L1271.08 330.42"/>
<path class="l5" d="M1250.87 329.072L1253.57 329.072L1253.57 331.767L1250.87 331.767L1250.87 329.072z"/>
<path class="l5" d="M1683.37 265.747L1692.8 265.747"/>
<path class="l5" d="M1702.24 265.747L1698.19 260.358L1688.76 260.358L1692.8 265.747L1688.76 271.136L1698.19 271.136L1702.24 265.747"/>
<path class="l5" d="M1682.03 264.4L1684.72 264.4L1684.72 267.094L1682.03 267.094L1682.03 264.4z"/>
<path class="l5" d="M1012.39 1039.12L1017.78 1039.12L1017.78 1044.51L1012.39 1044.51L1012.39 1039.12z"/>
<path class="l5" d="M969.278 1006.79L974.667 1006.79L974.667 1012.18L969.278 1012.18L969.278 1006.79z"/>
<path class="l5" d="M1012.39 974.452L1017.78 974.452L1017.78 979.842L1012.39 979.842L1012.39 974.452z"/>
<path class="l5" d="M1389.65 1039.12L1395.04 1039.12L1395.04 1044.51L1389.65 1044.51L1389.65 1039.12z"/>
<path class="l5" d="M1346.54 1006.79L1351.92 1006.79L1351.92 1012.18L1346.54 1012.18L1346.54 1006.79z"/>
<path class="l5" d="M1389.65 974.452L1395.04 974.452L1395.04 979.842L1389.65 979.842L1389.65 974.452z"/>
<path class="l5" d="M1388.03 811.154L1396.66 811.154L1396.66 819.777L1388.03 819.777L1388.03 811.154z"/>
<path class="l5" d="M1388.03 724.923L1396.66 724.923L1396.66 733.546L1388.03 733.546L1388.03 724.923z"/>
<path class="l5" d="M1366.48 768.038L1375.1 768.038L1375.1 776.661L1366.48 776.661L1366.48 768.038z"/>
<path class="l5" d="M1066.29 403.177L1071.68 403.177L1071.68 408.566L1066.29 408.566L1066.29 403.177z"/>
<path class="l5" d="M1195.63 327.725L1201.02 327.725L1201.02 333.114L1195.63 333.114L1195.63 327.725z"/>
<path class="l5" d="M1206.41 564.858L1211.8 564.858L1211.8 570.248L1206.41 570.248L1206.41 564.858z"/>
<path class="l5" d="M1184.85 564.858L1190.24 564.858L1190.24 570.248L1184.85 570.248L1184.85 564.858z"/>
<path class="l5" d="M1066.29 424.734L1071.68 424.734L1071.68 430.124L1066.29 430.124L1066.29 424.734z"/>
<path class="l5" d="M1066.29 532.522L1071.68 532.522L1071.68 537.911L1066.29 537.911L1066.29 532.522z"/>
<path class="l5" d="M1281.86 381.619L1287.25 381.619L1287.25 387.008L1281.86 387.008L1281.86 381.619z"/>
<path class="l5" d="M1066.29 446.292L1071.68 446.292L1071.68 451.681L1066.29 451.681L1066.29 446.292z"/>
<path class="l5" d="M970.625 404.524L973.32 404.524L973.32 407.219L970.625 407.219L970.625 404.524z"/>
<path class="l5" d="M970.625 533.869L973.32 533.869L973.32 536.564L970.625 536.564L970.625 533.869z"/>
<path class="l5" d="M1013.74 771.003L1016.44 771.003L1016.44 773.697L1013.74 773.697L1013.74 771.003z"/>
<path class="l5" d="M1391 954.242L1393.69 954.242L1393.69 956.937L1391 956.937L1391 954.242z"/>
<path class="l5" d="M1391 706.33L1393.69 706.33L1393.69 709.025L1391 709.025L1391 706.33z"/>
<path class="l5" d="M581.242 219.937L586.631 219.937L586.631 225.327L581.242 225.327L581.242 219.937z"/>
<path class="l5" d="M581.242 295.389L586.631 295.389L586.631 300.778L581.242 300.778L581.242 295.389z"/>
<path class="l5" d="M872.269 122.928L877.658 122.928L877.658 128.318L872.269 128.318L872.269 122.928z"/>
<path class="l5" d="M1195.63 241.495L1201.02 241.495L1201.02 246.884L1195.63 246.884L1195.63 241.495z"/>
<path class="l5" d="M1012.39 241.495L1017.78 241.495L1017.78 246.884L1012.39 246.884L1012.39 241.495z"/>
<path class="l5" d="M1389.65 241.495L1395.04 241.495L1395.04 246.884L1389.65 246.884L1389.65 241.495z"/>
<path class="l5" d="M1616.01 241.495L1621.39 241.495L1621.39 246.884L1616.01 246.884L1616.01 241.495z"/>
<path class="l5" d="M1335.76 241.495L1341.15 241.495L1341.15 246.884L1335.76 246.884L1335.76 241.495z"/>
<path class="l5" d="M872.269 166.043L877.658 166.043L877.658 171.433L872.269 171.433L872.269 166.043z"/>
<path class="l5" d="M872.269 187.601L877.658 187.601L877.658 192.99L872.269 192.99L872.269 187.601z"/>
<path class="l5" d="M872.269 209.158L877.658 209.158L877.658 214.548L872.269 214.548L872.269 209.158z"/>
<path class="l5" d="M852.059 124.276L854.754 124.276L854.754 126.97L852.059 126.97L852.059 124.276z"/>
<path class="l5" d="M970.625 426.081L973.32 426.081L973.32 428.776L970.625 428.776L970.625 426.081z"/>
<path class="l5" d="M852.059 167.391L854.754 167.391L854.754 170.085L852.059 170.085L852.059 167.391z"/>
<path class="l5" d="M852.059 188.948L854.754 188.948L854.754 191.643L852.059 191.643L852.059 188.948z"/>
<path class="l5" d="M852.059 210.506L854.754 210.506L854.754 213.2L852.059 213.2L852.059 210.506z"/>
<path class="l5" d="M622.74 617.135L631.363 617.135L631.363 625.758L622.74 625.758L622.74 617.135z"/>
<path class="l5" d="M708.97 617.135L717.593 617.135L717.593 625.758L708.97 625.758L708.97 617.135z"/>
<path class="l5" d="M665.855 574.02L674.478 574.02L674.478 582.643L665.855 582.643L665.855 574.02z"/>
<path class="l5" d="M665.855 660.251L674.478 660.251L674.478 668.874L665.855 668.874L665.855 660.251z"/>
<path class="l5" d="M730.528 617.135L739.151 617.135L739.151 625.758L730.528 625.758L730.528 617.135z"/>
<path class="l5" d="M816.758 617.135L825.381 617.135L825.381 625.758L816.758 625.758L816.758 617.135z"/>
<path class="l5" d="M773.643 574.02L782.266 574.02L782.266 582.643L773.643 582.643L773.643 574.02z"/>
<path class="l5" d="M773.643 660.251L782.266 660.251L782.266 668.874L773.643 668.874L773.643 660.251z"/>
<path class="l5" d="M722.713 576.984L725.408 576.984L725.408 579.679L722.713 579.679L722.713 576.984z"/>
<path class="l5" d="M744.271 663.215L746.966 663.215L746.966 665.909L744.271 665.909L744.271 663.215z"/>
<path class="l5" d="M841.28 620.1L843.975 620.1L843.975 622.794L841.28 622.794L841.28 620.1z"/>
<path class="l5" d="M787.386 533.869L790.081 533.869L790.081 536.564L787.386 536.564L787.386 533.869z"/>
<path class="l1" d="M928.858 1009.48L971.973 1009.48"/>
<path class="l1" d="M928.858 1009.48L928.858 1063.38"/>
<path class="l1" d="M928.858 1063.38L1015.09 1063.38"/>
<path class="l1" d="M1015.09 1041.82L1015.09 1063.38"/>
<path class="l1" d="M1295.34 1009.48L1349.23 1009.48"/>
<path class="l1" d="M1295.34 1009.48L1295.34 1063.38"/>
<path class="l1" d="M1295.34 1063.38L1392.35 1063.38"/>
<path class="l1" d="M1392.35 1041.82L1392.35 1063.38"/>
<path class="l1" d="M1015.09 1063.38L1295.34 1063.38"/>
<path class="l1" d="M1392.35 944.811L1392.35 977.147"/>
<path class="l1" d="M1295.34 772.35L1370.79 772.35"/>
<path class="l1" d="M1295.34 772.35L1295.34 1009.48"/>
<path class="l1" d="M670.167 1063.38L928.858 1063.38"/>
<path class="l1" d="M1187.55 567.553L1187.55 653.783"/>
<path class="l1" d="M1209.11 599.889L1209.11 729.235"/>
<path class="l1" d="M971.973 405.871L993.53 405.871"/>
<path class="l1" d="M1187.55 653.783L1187.55 729.235"/>
<path class="l1" d="M971.973 427.429L993.53 427.429"/>
<path class="l1" d="M971.973 535.217L993.53 535.217"/>
<path class="l1" d="M1209.11 567.553L1209.11 599.889"/>
<path class="l1" d="M1241.44 330.42L1263 330.42"/>
<path class="l1" d="M1230.66 298.083L1263 298.083"/>
<path class="l1" d="M1392.35 815.465L1392.35 944.811"/>
<path class="l1" d="M1392.35 664.562L1392.35 729.235"/>
<path class="l1" d="M1209.11 729.235L1273.78 729.235"/>
<path class="l1" d="M1144.43 729.235L1187.55 729.235"/>
<path class="l1" d="M1015.09 729.235L1144.43 729.235"/>
<path class="l1" d="M1273.78 729.235L1392.35 729.235"/>
<path class="l1" d="M1198.33 330.42L1241.44 330.42"/>
<path class="l1" d="M1015.09 729.235L1015.09 977.147"/>
<path class="l1" d="M1015.09 244.189L1015.09 729.235"/>
<path class="l1" d="M1392.35 244.189L1392.35 664.562"/>
<path class="l1" d="M1198.33 298.083L1230.66 298.083"/>
<path class="l1" d="M1198.33 244.189L1198.33 298.083"/>
<path class="l1" d="M853.406 125.623L874.964 125.623"/>
<path class="l1" d="M853.406 168.738L874.964 168.738"/>
<path class="l1" d="M853.406 190.296L874.964 190.296"/>
<path class="l1" d="M853.406 211.853L874.964 211.853"/>
<path class="l1" d="M583.937 93.2865L583.937 222.632"/>
<path class="l1" d="M583.937 298.083L1198.33 298.083"/>
<path class="l1" d="M1338.45 244.189L1338.45 384.314"/>
<path class="l1" d="M1284.56 384.314L1338.45 384.314"/>
<path class="l1" d="M562.379 93.2865L583.937 93.2865"/>
<path class="l1" d="M1618.7 265.747L1683.37 265.747"/>
<path class="l1" d="M1618.7 244.189L1618.7 265.747"/>
<path class="l1" d="M713.282 621.447L734.84 621.447"/>
<path class="l1" d="M821.07 621.447L842.627 621.447"/>
<path class="l1" d="M659.388 578.332L777.955 578.332"/>
<path class="l1" d="M670.167 664.562L777.955 664.562"/>
<path class="l1" d="M734.84 535.217L734.84 621.447"/>
<path class="l1" d="M734.84 535.217L788.733 535.217"/>
<path class="l1" d="M993.53 405.871L1068.98 405.871"/>
<path class="l1" d="M993.53 427.429L1068.98 427.429"/>
<path class="l1" d="M993.53 448.986L1068.98 448.986"/>
<path class="l1" d="M993.53 535.217L1068.98 535.217"/>
<path class="l1" d="M734.84 448.986L993.53 448.986"/>
<path class="l1" d="M734.84 448.986L734.84 535.217"/>
<path class="l1" d="M573.158 621.447L627.052 621.447"/>
<circle class="l1" cx="1198.33" cy="298.083" r="4.31151"/>
<circle class="l1" cx="734.84" cy="535.217" r="4.31151"/>
<circle class="l1" cx="734.84" cy="535.217" r="4.31151"/>
<circle class="l1" cx="734.84" cy="535.217" r="4.31151"/>
<circle class="l1" cx="928.858" cy="1063.38" r="4.31151"/>
<circle class="l1" cx="1015.09" cy="729.235" r="4.31151"/>
<circle class="l1" cx="1015.09" cy="729.235" r="4.31151"/>
<circle class="l1" cx="1015.09" cy="729.235" r="4.31151"/>
<circle class="l1" cx="1015.09" cy="1063.38" r="4.31151"/>
<circle class="l1" cx="1295.34" cy="1063.38" r="4.31151"/>
<circle class="l1" cx="1015.09" cy="1063.38" r="4.31151"/>
<circle class="l1" cx="928.858" cy="1063.38" r="4.31151"/>
<circle class="l1" cx="1015.09" cy="1063.38" r="4.31151"/>
<circle class="l1" cx="928.858" cy="1063.38" r="4.31151"/>
<circle class="l1" cx="1198.33" cy="298.083" r="4.31151"/>
<circle class="l1" cx="1198.33" cy="298.083" r="4.31151"/>
<circle class="l1" cx="1295.34" cy="1009.48" r="4.31151"/>
<circle class="l1" cx="1295.34" cy="1063.38" r="4.31151"/>
<circle class="l1" cx="1295.34" cy="1009.48" r="4.31151"/>
<circle class="l1" cx="1295.34" cy="1063.38" r="4.31151"/>
<circle class="l1" cx="1295.34" cy="1009.48" r="4.31151"/>
</svg>
